<?xml version="1.0" encoding="UTF-8" standalone="no"?>
<svg
   xmlns:dc="http://purl.org/dc/elements/1.1/"
   xmlns:cc="http://creativecommons.org/ns#"
   xmlns:rdf="http://www.w3.org/1999/02/22-rdf-syntax-ns#"
   xmlns:svg="http://www.w3.org/2000/svg"
   xmlns="http://www.w3.org/2000/svg"
   xmlns:sodipodi="http://sodipodi.sourceforge.net/DTD/sodipodi-0.dtd"
   xmlns:inkscape="http://www.inkscape.org/namespaces/inkscape"
   viewBox="0 0 64 64"
   enable-background="new 0 0 64 64"
   version="1.1"
   id="svg102"
   sodipodi:docname="Bald.svg"
   inkscape:version="0.92.0 r15299">
  <metadata
     id="metadata108">
    <rdf:RDF>
      <cc:Work
         rdf:about="">
        <dc:format>image/svg+xml</dc:format>
        <dc:type
           rdf:resource="http://purl.org/dc/dcmitype/StillImage" />
      </cc:Work>
    </rdf:RDF>
  </metadata>
  <defs
     id="defs106" />
  <sodipodi:namedview
     pagecolor="#ffffff"
     bordercolor="#666666"
     borderopacity="1"
     objecttolerance="10"
     gridtolerance="10"
     guidetolerance="10"
     inkscape:pageopacity="0"
     inkscape:pageshadow="2"
     inkscape:window-width="1366"
     inkscape:window-height="705"
     id="namedview104"
     showgrid="false"
     inkscape:zoom="3.6875"
     inkscape:cx="32"
     inkscape:cy="32"
     inkscape:window-x="-8"
     inkscape:window-y="-8"
     inkscape:window-maximized="1"
     inkscape:current-layer="svg102" />
  <path
     d="m 57.3,39.502562 c 6.2,0 6.2,-10.248719 0,-10.248719 v -3.41624 c 0,0 -35,-1.024871 -43,-14.803705 2,13.892708 -7.7,18.219945 -7.7,18.219945 -6.2,0 -6.2,10.248719 0,10.248719 C 6.6,47.473788 13.9,60 31.9,60 49.9,60 57.3,47.473788 57.3,39.502562"
     id="path84"
     inkscape:connector-curvature="0"
     style="fill:#ffdd67;stroke-width:1.06712067" />
  <g
     fill="#fff"
     id="g90">
    <circle
       cx="44.5"
       cy="36.5"
       r="6.5"
       id="circle86" />
    <circle
       cx="19.5"
       cy="36.5"
       r="6.5"
       id="circle88" />
  </g>
  <circle
     cx="44.5"
     cy="36.5"
     r="4.5"
     fill="#664e27"
     id="circle92" />
  <circle
     cx="44.5"
     cy="36.5"
     r="1.5"
     fill="#231f20"
     id="circle94" />
  <circle
     cx="19.5"
     cy="36.5"
     r="4.5"
     fill="#664e27"
     id="circle96" />
  <circle
     cx="19.5"
     cy="36.5"
     r="1.5"
     fill="#231f20"
     id="circle98" />
  <path
     d="m40.1 48.1c-5.2 3.6-11 3.6-16.2 0-.6-.4-1.2.3-.8 1 1.6 2.6 4.8 4.9 8.9 4.9s7.3-2.3 8.9-4.9c.4-.7-.2-1.4-.8-1"
     fill="#937237"
     id="path100" />
  <path
     inkscape:connector-curvature="0"
     d="M 6.6,29.253843 H 57.3 C 57.3,11.653663 53.400003,7.8821962 31.950001,7.8821962 10.5,7.8821962 6.6,11.653663 6.6,29.253843 Z"
     id="path10"
     style="fill:#ffdd55;stroke-width:0.78285593" />
</svg>
