<?xml version="1.0" encoding="UTF-8" standalone="no"?>
<svg
   xmlns:dc="http://purl.org/dc/elements/1.1/"
   xmlns:cc="http://creativecommons.org/ns#"
   xmlns:rdf="http://www.w3.org/1999/02/22-rdf-syntax-ns#"
   xmlns:svg="http://www.w3.org/2000/svg"
   xmlns="http://www.w3.org/2000/svg"
   xmlns:sodipodi="http://sodipodi.sourceforge.net/DTD/sodipodi-0.dtd"
   xmlns:inkscape="http://www.inkscape.org/namespaces/inkscape"
   viewBox="0 0 64 64"
   enable-background="new 0 0 64 64"
   version="1.1"
   id="svg92"
   sodipodi:docname="Male Younger taller.svg"
   inkscape:version="0.92.0 r15299">
  <metadata
     id="metadata98">
    <rdf:RDF>
      <cc:Work
         rdf:about="">
        <dc:format>image/svg+xml</dc:format>
        <dc:type
           rdf:resource="http://purl.org/dc/dcmitype/StillImage" />
        <dc:title></dc:title>
      </cc:Work>
    </rdf:RDF>
  </metadata>
  <defs
     id="defs96" />
  <sodipodi:namedview
     pagecolor="#ffffff"
     bordercolor="#666666"
     borderopacity="1"
     objecttolerance="10"
     gridtolerance="10"
     guidetolerance="10"
     inkscape:pageopacity="0"
     inkscape:pageshadow="2"
     inkscape:window-width="1366"
     inkscape:window-height="705"
     id="namedview94"
     showgrid="false"
     inkscape:zoom="3.6875"
     inkscape:cx="32.023742"
     inkscape:cy="31.972939"
     inkscape:window-x="-8"
     inkscape:window-y="-8"
     inkscape:window-maximized="1"
     inkscape:current-layer="svg92" />
  <path
     d="m 32,-14 c 23,0 28,15.3 28,24 0,7.7 -1,11 -1,11 H 5 C 5,21 4,17.7 4,10 4,1.3 9,-14 32,-14 Z"
     id="path74"
     style="fill:#000000"
     inkscape:connector-curvature="0" />
  <path
     d="M 57.2,17 C 57.2,17 56.4,13.7 56,6.8 55.5,-0.7 45.1,5.3 32,5.3 18.9,5.3 8.5,-0.7 8,6.8 7.6,13.7 6.8,17 6.8,17 0.3,17 0.3,27.6 7.2,27.6 7.2,39 21.5,46 32,46 42.5,46 56.8,39 56.8,27.6 63.7,27.6 63.7,17 57.2,17"
     id="path76"
     inkscape:connector-curvature="0"
     style="fill:#ffdd67" />
  <circle
     cx="44.5"
     cy="19.5"
     r="6.5"
     id="circle78"
     style="fill:#ffffff" />
  <circle
     cx="44.5"
     cy="19.5"
     r="4.5"
     id="circle80"
     style="fill:#664e27" />
  <circle
     cx="44.5"
     cy="19.5"
     r="1.5"
     id="circle82"
     style="fill:#000000" />
  <circle
     cx="19.5"
     cy="19.5"
     r="6.5"
     id="circle84"
     style="fill:#ffffff" />
  <circle
     cx="19.5"
     cy="19.5"
     r="4.5"
     id="circle86"
     style="fill:#664e27" />
  <circle
     cx="19.5"
     cy="19.5"
     r="1.5"
     id="circle88"
     style="fill:#000000" />
  <path
     d="m 40.1,32.1 c -5.2,3.6 -11,3.6 -16.2,0 -0.6,-0.4 -1.2,0.3 -0.8,1 1.6,2.6 4.8,4.9 8.9,4.9 4.1,0 7.3,-2.3 8.9,-4.9 0.4,-0.7 -0.2,-1.4 -0.8,-1"
     id="path90"
     inkscape:connector-curvature="0"
     style="fill:#937237" />
</svg>
