<?xml version="1.0" encoding="UTF-8" standalone="no"?>
<svg
   xmlns:dc="http://purl.org/dc/elements/1.1/"
   xmlns:cc="http://creativecommons.org/ns#"
   xmlns:rdf="http://www.w3.org/1999/02/22-rdf-syntax-ns#"
   xmlns:svg="http://www.w3.org/2000/svg"
   xmlns="http://www.w3.org/2000/svg"
   xmlns:sodipodi="http://sodipodi.sourceforge.net/DTD/sodipodi-0.dtd"
   xmlns:inkscape="http://www.inkscape.org/namespaces/inkscape"
   viewBox="0 0 64 64"
   enable-background="new 0 0 64 64"
   version="1.1"
   id="svg72"
   sodipodi:docname="my height.svg"
   inkscape:version="0.92.0 r15299">
  <metadata
     id="metadata78">
    <rdf:RDF>
      <cc:Work
         rdf:about="">
        <dc:format>image/svg+xml</dc:format>
        <dc:type
           rdf:resource="http://purl.org/dc/dcmitype/StillImage" />
        <dc:title />
      </cc:Work>
    </rdf:RDF>
  </metadata>
  <defs
     id="defs76" />
  <sodipodi:namedview
     pagecolor="#ffffff"
     bordercolor="#666666"
     borderopacity="1"
     objecttolerance="10"
     gridtolerance="10"
     guidetolerance="10"
     inkscape:pageopacity="0"
     inkscape:pageshadow="2"
     inkscape:window-width="1366"
     inkscape:window-height="705"
     id="namedview74"
     showgrid="false"
     inkscape:zoom="3.6875"
     inkscape:cx="32"
     inkscape:cy="32"
     inkscape:window-x="-8"
     inkscape:window-y="-8"
     inkscape:window-maximized="1"
     inkscape:current-layer="svg72" />
  <ellipse
     cx="32"
     cy="11.5"
     rx="15"
     ry="9.6"
     fill="#627a82"
     id="ellipse44"
     style="fill:#280b0b;fill-opacity:1" />
  <ellipse
     cx="32"
     cy="15.5"
     rx="15"
     ry="9.6"
     fill="#c28fef"
     id="ellipse46" />
  <path
     d="m57.3 28.8c-15.6-15.6-35.1-15.7-50.7 0l.1 17.3c0 7.5 7.4 15.8 25.7 15.8 17.3 0 24.9-6.8 24.9-15.8v-17.3"
     fill="#ffdd67"
     id="path48"
     style="fill:#fae3c3;fill-opacity:1" />
  <path
     d="m39.2 51.7c.1.2.2.4.2.6 0 1.7-3.4 3.8-7.5 3.8s-7.5-2.1-7.5-3.8c0-.2.1-.5.2-.6 0 0 3.2 1.5 7.3 1.5 4.1-.1 7.3-1.5 7.3-1.5"
     fill="#454749"
     id="path50"
     style="fill:#000000" />
  <path
     d="m32 9.1c-29.5 0-35.8 23.7-25.2 32 0 0 5.2-8.8 16.1-13 28.4-11 20.5-19 9.1-19"
     fill="#748a93"
     id="path52"
     style="fill:#1d0b0b;fill-opacity:1" />
  <path
     d="m32 9.1c-11.4 0-19.3 8.1 9.1 19 10.9 4.2 16.1 13 16.1 13 10.6-8.3 4.2-32-25.2-32"
     fill="#8b9fa5"
     id="path54"
     style="fill:#280b0b;fill-opacity:1" />
  <g
     fill="#454749"
     id="g64"
     style="fill:#000000">
    <path
       d="m42.8 54.3c-.6 0-1.1-.2-1.6-.4-.5-.2-1-.5-1.4-.9-.8-.7-1.6-1.8-1.6-2.9.8.8 1.5 1.5 2.2 2.2.8.7 1.6 1.3 2.4 2"
       id="path56"
       style="fill:#000000" />
    <path
       d="m21 54.3c.8-.8 1.7-1.3 2.4-2 .8-.7 1.5-1.3 2.2-2.2 0 1.2-.7 2.2-1.6 2.9-.4.4-.9.7-1.4.9-.4.3-1 .4-1.6.4"
       id="path58"
       style="fill:#000000" />
    <path
       d="m17.8 40.9l-.3-3c.8-.1 1.9-.3 3.1-.5 5.9-1.1 15.7-3 26.4.6l-1 2.8c-9.9-3.4-19.2-1.6-24.8-.5-1.4.3-2.6.5-3.4.6"
       id="path60"
       style="fill:#000000" />
    <ellipse
       cx="19.7"
       cy="39.5"
       rx="9"
       ry="9"
       id="ellipse62"
       style="fill:#000000" />
  </g>
  <ellipse
     cx="19.7"
     cy="39.5"
     rx="6"
     ry="6"
     fill="#b4d7ee"
     id="ellipse66" />
  <ellipse
     cx="44.3"
     cy="39.5"
     rx="9"
     ry="9"
     fill="#454749"
     id="ellipse68"
     style="fill:#000000" />
  <ellipse
     cx="44.3"
     cy="39.5"
     rx="6"
     ry="6"
     fill="#b4d7ee"
     id="ellipse70" />
</svg>
