<?xml version="1.0" encoding="UTF-8" standalone="no"?>
<svg
   xmlns:dc="http://purl.org/dc/elements/1.1/"
   xmlns:cc="http://creativecommons.org/ns#"
   xmlns:rdf="http://www.w3.org/1999/02/22-rdf-syntax-ns#"
   xmlns:svg="http://www.w3.org/2000/svg"
   xmlns="http://www.w3.org/2000/svg"
   xmlns:sodipodi="http://sodipodi.sourceforge.net/DTD/sodipodi-0.dtd"
   xmlns:inkscape="http://www.inkscape.org/namespaces/inkscape"
   viewBox="0 0 64 64"
   enable-background="new 0 0 64 64"
   version="1.1"
   id="svg36"
   sodipodi:docname="female blad.svg"
   inkscape:version="0.92.0 r15299">
  <metadata
     id="metadata42">
    <rdf:RDF>
      <cc:Work
         rdf:about="">
        <dc:format>image/svg+xml</dc:format>
        <dc:type
           rdf:resource="http://purl.org/dc/dcmitype/StillImage" />
        <dc:title />
      </cc:Work>
    </rdf:RDF>
  </metadata>
  <defs
     id="defs40" />
  <sodipodi:namedview
     pagecolor="#ffffff"
     bordercolor="#666666"
     borderopacity="1"
     objecttolerance="10"
     gridtolerance="10"
     guidetolerance="10"
     inkscape:pageopacity="0"
     inkscape:pageshadow="2"
     inkscape:window-width="1366"
     inkscape:window-height="705"
     id="namedview38"
     showgrid="false"
     inkscape:zoom="8.15625"
     inkscape:cx="27.498317"
     inkscape:cy="34.948659"
     inkscape:window-x="-8"
     inkscape:window-y="-8"
     inkscape:window-maximized="1"
     inkscape:current-layer="svg36" />
  <path
     d="M 10.4,40.7 C 10.4,40.7 6,39.6 6,33.2 6,28.1 9.3,27.3 9.3,27.3 21.1,27.2 43,12 43,12 c 0,0 4.6,13.4 11.6,15.2 0,0 3.4,0.6 3.4,5.9 0,6.4 -4.5,7.5 -4.5,7.5 C 53.4,50.3 40.1,62 32,62 23.9,62 10.4,50.3 10.4,40.7 Z"
     id="path12"
     style="fill:#ffdd67;fill-opacity:1"
     inkscape:connector-curvature="0" />
  <path
     d="m 32,47 c -4.2,0 -6.3,-3 -4.2,-3 2.1,0 6.3,0 8.4,0 2.1,0 0,3 -4.2,3"
     id="path14"
     inkscape:connector-curvature="0"
     style="fill:#eba352" />
  <path
     d="M 38.3,38.2 C 36.8,38.2 37,36.4 37,36.4 39.2,24.9 52,31 52,31 c 1,2 -2.3,6.9 -3.2,7.2 -4.2,1 -10.5,0 -10.5,0"
     id="path16"
     inkscape:connector-curvature="0"
     style="fill:#f5f5f5" />
  <path
     d="m 48.5,33.5 c 0,2.5 -2,4.5 -4.5,4.5 -2.5,0 -4.5,-2 -4.5,-4.5 0,-2.5 2,-4.5 4.5,-4.5 2.5,0 4.5,2 4.5,4.5"
     id="path18"
     inkscape:connector-curvature="0"
     style="fill:#664e27" />
  <circle
     cx="44"
     cy="33.5"
     r="1.5"
     id="circle20"
     style="fill:#000000" />
  <path
     d="M 37,36.3 C 39.2,22.6 50.5,31.7 55,29.8 50.5,34.1 41.5,24.9 37,36.3"
     id="path22"
     style="fill:#000000"
     inkscape:connector-curvature="0" />
  <path
     d="M 25.7,38.2 C 27.2,38.2 27,36.4 27,36.4 24.8,24.9 12,31 12,31 c -1,2 2.3,6.9 3.2,7.2 4.2,1 10.5,0 10.5,0"
     id="path24"
     inkscape:connector-curvature="0"
     style="fill:#f5f5f5" />
  <path
     d="m 15.5,33.5 c 0,2.5 2,4.5 4.5,4.5 2.5,0 4.5,-2 4.5,-4.5 0,-2.5 -2,-4.5 -4.5,-4.5 -2.5,0 -4.5,2 -4.5,4.5"
     id="path26"
     inkscape:connector-curvature="0"
     style="fill:#664e27" />
  <path
     d="M 27,36.3 C 24.8,22.6 13.5,31.7 9,29.8 c 4.5,4.3 13.5,-4.9 18,6.5"
     id="path28"
     style="fill:#000000"
     inkscape:connector-curvature="0" />
  <path
     d="M 32,52 22,50.5 c 6,8.5 14,8.5 20,0 z"
     id="path30"
     inkscape:connector-curvature="0"
     style="fill:#f09985" />
  <path
     d="M 35.9,50.1 C 33,49 32,50.8 32,50.8 32,50.8 31,49 28.1,50.1 25.8,51 22,50.5 22,50.5 c 4,0.9 4.5,2.5 10,2.5 5.5,0 6,-1.7 10,-2.5 0,0 -3.8,0.5 -6.1,-0.4"
     id="path32"
     inkscape:connector-curvature="0"
     style="fill:#d47f6c" />
  <circle
     cx="20"
     cy="33.5"
     r="1.5"
     id="circle34"
     style="fill:#000000" />
  <path
     inkscape:connector-curvature="0"
     d="M 9.5885068,27.2 H 54.6 C 54.6,10.205635 51.137577,6.5639852 32.094253,6.5639852 13.050928,6.5639852 9.5885068,10.205635 9.5885068,27.2 Z"
     id="path10"
     style="fill:#ffdd67;stroke-width:0.7248255;fill-opacity:1" />
</svg>
