<?xml version="1.0" encoding="UTF-8" standalone="no"?>
<svg
   xmlns:dc="http://purl.org/dc/elements/1.1/"
   xmlns:cc="http://creativecommons.org/ns#"
   xmlns:rdf="http://www.w3.org/1999/02/22-rdf-syntax-ns#"
   xmlns:svg="http://www.w3.org/2000/svg"
   xmlns="http://www.w3.org/2000/svg"
   xmlns:sodipodi="http://sodipodi.sourceforge.net/DTD/sodipodi-0.dtd"
   xmlns:inkscape="http://www.inkscape.org/namespaces/inkscape"
   viewBox="0 0 64 64"
   enable-background="new 0 0 64 64"
   version="1.1"
   id="svg66"
   sodipodi:docname="Male Older blad.svg"
   inkscape:version="0.92.0 r15299">
  <metadata
     id="metadata72">
    <rdf:RDF>
      <cc:Work
         rdf:about="">
        <dc:format>image/svg+xml</dc:format>
        <dc:type
           rdf:resource="http://purl.org/dc/dcmitype/StillImage" />
        <dc:title />
      </cc:Work>
    </rdf:RDF>
  </metadata>
  <defs
     id="defs70" />
  <sodipodi:namedview
     pagecolor="#ffffff"
     bordercolor="#666666"
     borderopacity="1"
     objecttolerance="10"
     gridtolerance="10"
     guidetolerance="10"
     inkscape:pageopacity="0"
     inkscape:pageshadow="2"
     inkscape:window-width="1366"
     inkscape:window-height="705"
     id="namedview68"
     showgrid="false"
     inkscape:zoom="3.6875"
     inkscape:cx="20.899924"
     inkscape:cy="35.159037"
     inkscape:window-x="-8"
     inkscape:window-y="-8"
     inkscape:window-maximized="1"
     inkscape:current-layer="svg66" />
  <path
     d="M 58.5,36.8 C 49.4,33.2 56.5,23.3 56.8,21.3 56.8,21.3 54.7,2 32,2 9.3,2 7.2,21.3 7.2,21.3 c 0.3,2 7.5,11.9 -1.7,15.5 0,0 -3.4,-0.4 -3.4,3.7 0,4.9 3.5,4.1 3.5,4.1 0,7.5 7.4,17.4 26.4,17.4 19,0 26.4,-9.9 26.4,-17.4 0,0 3.5,0.8 3.5,-4.1 0,-4.1 -3.4,-3.7 -3.4,-3.7"
     id="path44"
     inkscape:connector-curvature="0"
     style="fill:#ffdd67;fill-opacity:1" />
  <g
     id="g52"
     style="fill:#280b0b;fill-opacity:1">
    <path
       d="m 40.7,52.9 c 0.2,0 0.3,-0.9 0.3,-1.3 0,-2.6 -4,-4.8 -9,-4.8 -5,0 -9,2.3 -9,4.9 0,0.3 0.1,1.2 0.2,1.2 0,0 17.5,0 17.5,0"
       id="path46"
       style="fill:#280b0b;fill-opacity:1"
       inkscape:connector-curvature="0" />
  </g>
  <g
     id="g58"
     style="fill:#000000">
    <path
       d="m 17.8,39.3 -0.3,-3 c 0.8,-0.1 1.9,-0.3 3.1,-0.5 5.9,-1.1 15.7,-3 26.4,0.6 l -1,2.8 C 36.1,35.8 26.8,37.6 21.2,38.7 19.8,39 18.6,39.2 17.8,39.3"
       id="path54"
       style="fill:#000000"
       inkscape:connector-curvature="0" />
    <circle
       cx="19.700001"
       cy="37.900002"
       id="ellipse56"
       style="fill:#000000"
       r="9" />
  </g>
  <circle
     cx="19.700001"
     cy="37.900002"
     id="ellipse60"
     r="6"
     style="fill:#999999" />
  <circle
     cx="44.299999"
     cy="37.900002"
     id="ellipse62"
     style="fill:#000000"
     r="9" />
  <circle
     cx="44.299999"
     cy="37.900002"
     id="ellipse64"
     r="6"
     style="fill:#999999" />
  <ellipse
     style="fill:#ffdd67;stroke-width:0.91838712;fill-opacity:1"
     id="path32"
     cx="9.010169"
     cy="28.61017"
     rx="2.9220338"
     ry="9.0110168" />
  <ellipse
     style="fill:#ffdd67;stroke-width:0.91838712;fill-opacity:1"
     id="path32-8"
     cx="55.322033"
     cy="27.932205"
     rx="2.9220338"
     ry="9.0110168" />
</svg>
