<?xml version="1.0" encoding="UTF-8" standalone="no"?>
<svg
   xmlns:dc="http://purl.org/dc/elements/1.1/"
   xmlns:cc="http://creativecommons.org/ns#"
   xmlns:rdf="http://www.w3.org/1999/02/22-rdf-syntax-ns#"
   xmlns:svg="http://www.w3.org/2000/svg"
   xmlns="http://www.w3.org/2000/svg"
   xmlns:sodipodi="http://sodipodi.sourceforge.net/DTD/sodipodi-0.dtd"
   xmlns:inkscape="http://www.inkscape.org/namespaces/inkscape"
   viewBox="0 0 64 64"
   enable-background="new 0 0 64 64"
   version="1.1"
   id="svg34"
   sodipodi:docname="Male older blad Shorter.svg"
   inkscape:version="0.92.0 r15299">
  <metadata
     id="metadata40">
    <rdf:RDF>
      <cc:Work
         rdf:about="">
        <dc:format>image/svg+xml</dc:format>
        <dc:type
           rdf:resource="http://purl.org/dc/dcmitype/StillImage" />
        <dc:title></dc:title>
      </cc:Work>
    </rdf:RDF>
  </metadata>
  <defs
     id="defs38" />
  <sodipodi:namedview
     pagecolor="#ffffff"
     bordercolor="#666666"
     borderopacity="1"
     objecttolerance="10"
     gridtolerance="10"
     guidetolerance="10"
     inkscape:pageopacity="0"
     inkscape:pageshadow="2"
     inkscape:window-width="1366"
     inkscape:window-height="705"
     id="namedview36"
     showgrid="false"
     inkscape:zoom="4.078125"
     inkscape:cx="26.366027"
     inkscape:cy="21.051305"
     inkscape:window-x="-8"
     inkscape:window-y="-8"
     inkscape:window-maximized="1"
     inkscape:current-layer="svg34" />
  <path
     d="M 6,52 H 58 C 58,24 54,18 32,18 10,18 6,24 6,52 Z"
     id="path10"
     style="fill:#ffdd55"
     inkscape:connector-curvature="0" />
  <path
     d="m 55.8,45.9 c -0.2,1.1 -0.4,2.1 -0.7,2.7 -0.6,1 -1.7,1.6 -1.7,1.6 0,0 0.3,-2.1 0.2,-5 C 52.4,27.8 51.4,32.6 32,32.6 c -19.4,0 -20.4,-4.8 -21.6,12.5 -0.1,2.9 0.2,5.1 0.2,5.1 0,0 -1.1,-0.6 -1.7,-1.6 C 8.6,48 8.4,47 8.2,45.9 6.4,45.4 4,45.8 4,51 c 0,3.2 1.2,5.9 5.3,6.2 1.3,10.2 7.3,15.4 17.2,19.9 2.7,1.2 8.3,1.2 11,0 10,-4.5 15.9,-9.7 17.2,-19.9 4.1,-0.3 5.3,-2.9 5.3,-6.2 0,-5.2 -2.4,-5.6 -4.2,-5.1"
     id="path12"
     inkscape:connector-curvature="0"
     style="fill:#ffdd67" />
  <path
     d="m 20,44.6 c -5,0 -7,1.8 -7,3.6 0,1.8 0,4.4 6.6,4.4 6.4,0 7.4,-0.8 7.4,-3.5 0,-1.8 -2,-4.5 -7,-4.5"
     id="path16"
     inkscape:connector-curvature="0"
     style="fill:#f5f5f5" />
  <circle
     cx="20.5"
     cy="47.599998"
     r="4.5"
     id="circle18"
     style="fill:#664e27" />
  <path
     d="m 22,47.6 c 0,0.8 -0.7,1.5 -1.5,1.5 -0.8,0 -1.5,-0.7 -1.5,-1.5 0,-0.8 0.7,-1.5 1.5,-1.5 0.8,0 1.5,0.7 1.5,1.5"
     id="path20"
     style="fill:#000000"
     inkscape:connector-curvature="0" />
  <path
     d="m 13,48.1 c 0,-7 14,-7 14,1 -2,-6 -12,-6 -14,-1"
     id="path22"
     style="fill:#552200"
     inkscape:connector-curvature="0" />
  <path
     d="m 44,44.6 c 5,0 7,1.8 7,3.6 0,1.8 0,4.4 -6.6,4.4 -6.4,0 -7.4,-0.8 -7.4,-3.5 0,-1.8 2,-4.5 7,-4.5"
     id="path24"
     inkscape:connector-curvature="0"
     style="fill:#f5f5f5" />
  <circle
     cx="43.5"
     cy="47.599998"
     r="4.5"
     id="circle26"
     style="fill:#664e27" />
  <path
     d="m 42,47.6 c 0,0.8 0.7,1.5 1.5,1.5 0.8,0 1.5,-0.7 1.5,-1.5 0,-0.8 -0.7,-1.5 -1.5,-1.5 -0.8,0 -1.5,0.7 -1.5,1.5"
     id="path28"
     style="fill:#000000"
     inkscape:connector-curvature="0" />
  <path
     d="m 51,48.1 c 0,-7 -14,-7 -14,1 2,-6 12,-6 14,-1"
     id="path30"
     style="fill:#552200"
     inkscape:connector-curvature="0" />
  <g
     transform="translate(0.183908,14.099617)"
     id="g52"
     style="fill:#280b0b;fill-opacity:1">
    <path
       d="m 40.7,52.9 c 0.2,0 0.3,-0.9 0.3,-1.3 0,-2.6 -4,-4.8 -9,-4.8 -5,0 -9,2.3 -9,4.9 0,0.3 0.1,1.2 0.2,1.2 0,0 17.5,0 17.5,0"
       id="path46"
       style="fill:#280b0b;fill-opacity:1"
       inkscape:connector-curvature="0" />
  </g>
  <g
     transform="translate(0.183908,14.099617)"
     id="g58"
     style="fill:#000000">
    <path
       d="m 17.8,39.3 -0.3,-3 c 0.8,-0.1 1.9,-0.3 3.1,-0.5 5.9,-1.1 15.7,-3 26.4,0.6 l -1,2.8 C 36.1,35.8 26.8,37.6 21.2,38.7 19.8,39 18.6,39.2 17.8,39.3"
       id="path54"
       style="fill:#000000"
       inkscape:connector-curvature="0" />
    <circle
       cx="19.700001"
       cy="37.900002"
       id="ellipse56"
       style="fill:#000000"
       r="9" />
  </g>
  <circle
     cx="19.883911"
     cy="51.999619"
     id="ellipse60"
     r="6"
     style="fill:#999999" />
  <circle
     cx="44.48391"
     cy="51.999619"
     id="ellipse62"
     style="fill:#000000"
     r="9" />
  <circle
     cx="44.48391"
     cy="51.999619"
     id="ellipse64"
     r="6"
     style="fill:#999999" />
</svg>
