<?xml version="1.0" encoding="UTF-8" standalone="no"?>
<svg
   xmlns:dc="http://purl.org/dc/elements/1.1/"
   xmlns:cc="http://creativecommons.org/ns#"
   xmlns:rdf="http://www.w3.org/1999/02/22-rdf-syntax-ns#"
   xmlns:svg="http://www.w3.org/2000/svg"
   xmlns="http://www.w3.org/2000/svg"
   xmlns:sodipodi="http://sodipodi.sourceforge.net/DTD/sodipodi-0.dtd"
   xmlns:inkscape="http://www.inkscape.org/namespaces/inkscape"
   viewBox="0 0 64 64"
   enable-background="new 0 0 64 64"
   version="1.1"
   id="svg36"
   sodipodi:docname="Female shorter.svg"
   inkscape:version="0.92.0 r15299">
  <metadata
     id="metadata42">
    <rdf:RDF>
      <cc:Work
         rdf:about="">
        <dc:format>image/svg+xml</dc:format>
        <dc:type
           rdf:resource="http://purl.org/dc/dcmitype/StillImage" />
        <dc:title></dc:title>
      </cc:Work>
    </rdf:RDF>
  </metadata>
  <defs
     id="defs40" />
  <sodipodi:namedview
     pagecolor="#ffffff"
     bordercolor="#666666"
     borderopacity="1"
     objecttolerance="10"
     gridtolerance="10"
     guidetolerance="10"
     inkscape:pageopacity="0"
     inkscape:pageshadow="2"
     inkscape:window-width="1366"
     inkscape:window-height="705"
     id="namedview38"
     showgrid="false"
     inkscape:zoom="8.15625"
     inkscape:cx="32"
     inkscape:cy="32"
     inkscape:window-x="-8"
     inkscape:window-y="-8"
     inkscape:window-maximized="1"
     inkscape:current-layer="svg36" />
  <path
     d="M 32,22 C 13.9,22 4,33.4 4,48.5 V 82 H 60 V 48.5 C 60,26.1 44.8,26.5 44.8,26.5 44.8,26.5 43.7,22 32,22 Z"
     id="path10"
     style="fill:#000000"
     inkscape:connector-curvature="0" />
  <path
     d="M 10.4,60.7 C 10.4,60.7 6,59.6 6,53.2 6,48.1 9.3,47.3 9.3,47.3 21.1,47.2 43,32 43,32 c 0,0 4.6,13.4 11.6,15.2 0,0 3.4,0.6 3.4,5.9 0,6.4 -4.5,7.5 -4.5,7.5 C 53.4,70.3 40.1,82 32,82 23.9,82 10.4,70.3 10.4,60.7 Z"
     id="path12"
     inkscape:connector-curvature="0"
     style="fill:#ffdd67" />
  <path
     d="m 32,67 c -4.2,0 -6.3,-3 -4.2,-3 2.1,0 6.3,0 8.4,0 2.1,0 0,3 -4.2,3"
     id="path14"
     inkscape:connector-curvature="0"
     style="fill:#eba352" />
  <path
     d="M 38.3,58.2 C 36.8,58.2 37,56.4 37,56.4 39.2,44.9 52,51 52,51 c 1,2 -2.3,6.9 -3.2,7.2 -4.2,1 -10.5,0 -10.5,0"
     id="path16"
     inkscape:connector-curvature="0"
     style="fill:#f5f5f5" />
  <path
     d="m 48.5,53.5 c 0,2.5 -2,4.5 -4.5,4.5 -2.5,0 -4.5,-2 -4.5,-4.5 0,-2.5 2,-4.5 4.5,-4.5 2.5,0 4.5,2 4.5,4.5"
     id="path18"
     inkscape:connector-curvature="0"
     style="fill:#664e27" />
  <circle
     cx="44"
     cy="53.5"
     r="1.5"
     id="circle20"
     style="fill:#000000" />
  <path
     d="M 37,56.3 C 39.2,42.6 50.5,51.7 55,49.8 50.5,54.1 41.5,44.9 37,56.3"
     id="path22"
     style="fill:#000000"
     inkscape:connector-curvature="0" />
  <path
     d="M 25.7,58.2 C 27.2,58.2 27,56.4 27,56.4 24.8,44.9 12,51 12,51 c -1,2 2.3,6.9 3.2,7.2 4.2,1 10.5,0 10.5,0"
     id="path24"
     inkscape:connector-curvature="0"
     style="fill:#f5f5f5" />
  <path
     d="m 15.5,53.5 c 0,2.5 2,4.5 4.5,4.5 2.5,0 4.5,-2 4.5,-4.5 0,-2.5 -2,-4.5 -4.5,-4.5 -2.5,0 -4.5,2 -4.5,4.5"
     id="path26"
     inkscape:connector-curvature="0"
     style="fill:#664e27" />
  <path
     d="M 27,56.3 C 24.8,42.6 13.5,51.7 9,49.8 c 4.5,4.3 13.5,-4.9 18,6.5"
     id="path28"
     style="fill:#000000"
     inkscape:connector-curvature="0" />
  <path
     d="M 32,72 22,70.5 c 6,8.5 14,8.5 20,0 z"
     id="path30"
     inkscape:connector-curvature="0"
     style="fill:#f09985" />
  <path
     d="M 35.9,70.1 C 33,69 32,70.8 32,70.8 32,70.8 31,69 28.1,70.1 25.8,71 22,70.5 22,70.5 c 4,0.9 4.5,2.5 10,2.5 5.5,0 6,-1.7 10,-2.5 0,0 -3.8,0.5 -6.1,-0.4"
     id="path32"
     inkscape:connector-curvature="0"
     style="fill:#d47f6c" />
  <circle
     cx="20"
     cy="53.5"
     r="1.5"
     id="circle34"
     style="fill:#000000" />
</svg>
