<?xml version="1.0" encoding="UTF-8" standalone="no"?>
<svg
   xmlns:dc="http://purl.org/dc/elements/1.1/"
   xmlns:cc="http://creativecommons.org/ns#"
   xmlns:rdf="http://www.w3.org/1999/02/22-rdf-syntax-ns#"
   xmlns:svg="http://www.w3.org/2000/svg"
   xmlns="http://www.w3.org/2000/svg"
   xmlns:sodipodi="http://sodipodi.sourceforge.net/DTD/sodipodi-0.dtd"
   xmlns:inkscape="http://www.inkscape.org/namespaces/inkscape"
   viewBox="0 0 64 64"
   enable-background="new 0 0 64 64"
   version="1.1"
   id="svg36"
   sodipodi:docname="female shorter.svg"
   inkscape:version="0.92.0 r15299">
  <metadata
     id="metadata42">
    <rdf:RDF>
      <cc:Work
         rdf:about="">
        <dc:format>image/svg+xml</dc:format>
        <dc:type
           rdf:resource="http://purl.org/dc/dcmitype/StillImage" />
        <dc:title />
      </cc:Work>
    </rdf:RDF>
  </metadata>
  <defs
     id="defs40" />
  <sodipodi:namedview
     pagecolor="#ffffff"
     bordercolor="#666666"
     borderopacity="1"
     objecttolerance="10"
     gridtolerance="10"
     guidetolerance="10"
     inkscape:pageopacity="0"
     inkscape:pageshadow="2"
     inkscape:window-width="1366"
     inkscape:window-height="705"
     id="namedview38"
     showgrid="false"
     inkscape:zoom="4.078125"
     inkscape:cx="34.48175"
     inkscape:cy="26.366027"
     inkscape:window-x="-8"
     inkscape:window-y="-8"
     inkscape:window-maximized="1"
     inkscape:current-layer="svg36" />
  <path
     d="M 32,20 C 13.9,20 4,31.4 4,46.5 V 80 H 60 V 46.5 C 60,24.1 44.8,24.5 44.8,24.5 44.8,24.5 43.7,20 32,20 Z"
     id="path10"
     style="fill:#280b0b;fill-opacity:1"
     inkscape:connector-curvature="0" />
  <path
     d="M 10.4,58.7 C 10.4,58.7 6,57.6 6,51.2 6,46.1 9.3,45.3 9.3,45.3 21.1,45.2 43,30 43,30 c 0,0 4.6,13.4 11.6,15.2 0,0 3.4,0.6 3.4,5.9 0,6.4 -4.5,7.5 -4.5,7.5 C 53.4,68.3 40.1,80 32,80 23.9,80 10.4,68.3 10.4,58.7 Z"
     id="path12"
     style="fill:#fae3c3;fill-opacity:1"
     inkscape:connector-curvature="0" />
  <path
     d="m 32,65 c -4.2,0 -6.3,-3 -4.2,-3 2.1,0 6.3,0 8.4,0 2.1,0 0,3 -4.2,3"
     id="path14"
     style="fill:#d38d5f"
     inkscape:connector-curvature="0" />
  <path
     d="M 38.3,56.2 C 36.8,56.2 37,54.4 37,54.4 39.2,42.9 52,49 52,49 c 1,2 -2.3,6.9 -3.2,7.2 -4.2,1 -10.5,0 -10.5,0"
     id="path16"
     inkscape:connector-curvature="0"
     style="fill:#f5f5f5" />
  <path
     d="m 48.5,51.5 c 0,2.5 -2,4.5 -4.5,4.5 -2.5,0 -4.5,-2 -4.5,-4.5 0,-2.5 2,-4.5 4.5,-4.5 2.5,0 4.5,2 4.5,4.5"
     id="path18"
     style="fill:#deaa87"
     inkscape:connector-curvature="0" />
  <circle
     cx="44"
     cy="51.5"
     r="1.5"
     id="circle20"
     style="fill:#000000" />
  <path
     d="M 37,54.3 C 39.2,40.6 50.5,49.7 55,47.8 50.5,52.1 41.5,42.9 37,54.3"
     id="path22"
     style="fill:#280b0b;fill-opacity:1"
     inkscape:connector-curvature="0" />
  <path
     d="M 25.7,56.2 C 27.2,56.2 27,54.4 27,54.4 24.8,42.9 12,49 12,49 c -1,2 2.3,6.9 3.2,7.2 4.2,1 10.5,0 10.5,0"
     id="path24"
     inkscape:connector-curvature="0"
     style="fill:#f5f5f5" />
  <path
     d="m 15.5,51.5 c 0,2.5 2,4.5 4.5,4.5 2.5,0 4.5,-2 4.5,-4.5 0,-2.5 -2,-4.5 -4.5,-4.5 -2.5,0 -4.5,2 -4.5,4.5"
     id="path26"
     style="fill:#deaa87"
     inkscape:connector-curvature="0" />
  <path
     d="M 27,54.3 C 24.8,40.6 13.5,49.7 9,47.8 c 4.5,4.3 13.5,-4.9 18,6.5"
     id="path28"
     style="fill:#280b0b;fill-opacity:1"
     inkscape:connector-curvature="0" />
  <path
     d="M 32,70 22,68.5 c 6,8.5 14,8.5 20,0 z"
     id="path30"
     inkscape:connector-curvature="0"
     style="fill:#f09985" />
  <path
     d="M 35.9,68.1 C 33,67 32,68.8 32,68.8 32,68.8 31,67 28.1,68.1 25.8,69 22,68.5 22,68.5 c 4,0.9 4.5,2.5 10,2.5 5.5,0 6,-1.7 10,-2.5 0,0 -3.8,0.5 -6.1,-0.4"
     id="path32"
     inkscape:connector-curvature="0"
     style="fill:#d47f6c" />
  <circle
     cx="20"
     cy="51.5"
     r="1.5"
     id="circle34"
     style="fill:#000000" />
</svg>
