<?xml version="1.0" encoding="UTF-8" standalone="no"?>
<svg
   xmlns:dc="http://purl.org/dc/elements/1.1/"
   xmlns:cc="http://creativecommons.org/ns#"
   xmlns:rdf="http://www.w3.org/1999/02/22-rdf-syntax-ns#"
   xmlns:svg="http://www.w3.org/2000/svg"
   xmlns="http://www.w3.org/2000/svg"
   xmlns:sodipodi="http://sodipodi.sourceforge.net/DTD/sodipodi-0.dtd"
   xmlns:inkscape="http://www.inkscape.org/namespaces/inkscape"
   viewBox="0 0 64 64"
   enable-background="new 0 0 64 64"
   version="1.1"
   id="svg3704"
   sodipodi:docname="Male My Age Shorter My Skin Red Hair.svg"
   inkscape:version="0.92.0 r15299">
  <metadata
     id="metadata3710">
    <rdf:RDF>
      <cc:Work
         rdf:about="">
        <dc:format>image/svg+xml</dc:format>
        <dc:type
           rdf:resource="http://purl.org/dc/dcmitype/StillImage" />
        <dc:title />
      </cc:Work>
    </rdf:RDF>
  </metadata>
  <defs
     id="defs3708" />
  <sodipodi:namedview
     pagecolor="#ffffff"
     bordercolor="#666666"
     borderopacity="1"
     objecttolerance="10"
     gridtolerance="10"
     guidetolerance="10"
     inkscape:pageopacity="0"
     inkscape:pageshadow="2"
     inkscape:window-width="1366"
     inkscape:window-height="705"
     id="namedview3706"
     showgrid="false"
     inkscape:zoom="4"
     inkscape:cx="-49.25"
     inkscape:cy="-8"
     inkscape:window-x="-8"
     inkscape:window-y="-8"
     inkscape:window-maximized="1"
     inkscape:current-layer="svg3704" />
  <path
     d="M 6,60 H 58 C 58,32 54,26 32,26 10,26 6,32 6,60 Z"
     id="path3680"
     style="fill:#000000"
     inkscape:connector-curvature="0" />
  <path
     d="m 55.8,53.9 c -0.2,1.1 -0.4,2.1 -0.7,2.7 -0.6,1 -1.7,1.6 -1.7,1.6 0,0 0.3,-2.1 0.2,-5 C 52.4,35.8 51.4,40.6 32,40.6 c -19.4,0 -20.4,-4.8 -21.6,12.5 -0.1,2.9 0.2,5.1 0.2,5.1 0,0 -1.1,-0.6 -1.7,-1.6 C 8.6,56 8.4,55 8.2,53.9 6.4,53.4 4,53.8 4,59 c 0,3.2 1.2,5.9 5.3,6.2 1.3,10.2 7.3,15.4 17.2,19.9 2.7,1.2 8.3,1.2 11,0 10,-4.5 15.9,-9.7 17.2,-19.9 4.1,-0.3 5.3,-2.9 5.3,-6.2 0,-5.2 -2.4,-5.6 -4.2,-5.1"
     id="path3682"
     inkscape:connector-curvature="0"
     style="fill:#ffdd67" />
  <path
     d="m 41,72.9 c 0,3.4 -4.5,5.1 -9,5.1 -4.5,0 -9,-1.7 -9,-5.1 0,0 0,-0.9 0.9,-0.9 4.1,0 12.1,0 16.2,0 0.9,0 0.9,0.9 0.9,0.9"
     id="path3684"
     inkscape:connector-curvature="0"
     style="fill:#937237" />
  <path
     d="m 20,52.6 c -5,0 -7,1.8 -7,3.6 0,1.8 0,4.4 6.6,4.4 6.4,0 7.4,-0.8 7.4,-3.5 0,-1.8 -2,-4.5 -7,-4.5"
     id="path3686"
     inkscape:connector-curvature="0"
     style="fill:#f5f5f5" />
  <circle
     cx="20.5"
     cy="55.599998"
     r="4.5"
     id="circle3688"
     style="fill:#664e27" />
  <path
     d="m 22,55.6 c 0,0.8 -0.7,1.5 -1.5,1.5 -0.8,0 -1.5,-0.7 -1.5,-1.5 0,-0.8 0.7,-1.5 1.5,-1.5 0.8,0 1.5,0.7 1.5,1.5"
     id="path3690"
     inkscape:connector-curvature="0"
     style="fill:#000000" />
  <path
     d="m 13,56.1 c 0,-7 14,-7 14,1 -2,-6 -12,-6 -14,-1"
     id="path3692"
     style="fill:#000000;fill-opacity:1"
     inkscape:connector-curvature="0" />
  <path
     d="m 44,52.6 c 5,0 7,1.8 7,3.6 0,1.8 0,4.4 -6.6,4.4 -6.4,0 -7.4,-0.8 -7.4,-3.5 0,-1.8 2,-4.5 7,-4.5"
     id="path3694"
     inkscape:connector-curvature="0"
     style="fill:#f5f5f5" />
  <circle
     cx="43.5"
     cy="55.599998"
     r="4.5"
     id="circle3696"
     style="fill:#664e27" />
  <path
     d="m 42,55.6 c 0,0.8 0.7,1.5 1.5,1.5 0.8,0 1.5,-0.7 1.5,-1.5 0,-0.8 -0.7,-1.5 -1.5,-1.5 -0.8,0 -1.5,0.7 -1.5,1.5"
     id="path3698"
     inkscape:connector-curvature="0"
     style="fill:#000000" />
  <path
     d="m 51,56.1 c 0,-7 -14,-7 -14,1 2,-6 12,-6 14,-1"
     id="path3700"
     style="fill:#000000;fill-opacity:1"
     inkscape:connector-curvature="0" />
  <path
     d="m 32,69 c -4.2,0 -6.3,-3 -4.2,-3 2.1,0 6.3,0 8.4,0 2.1,0 0,3 -4.2,3"
     id="path3702"
     inkscape:connector-curvature="0"
     style="fill:#eba352" />
</svg>
