<?xml version="1.0" encoding="UTF-8" standalone="no"?>
<svg
   xmlns:dc="http://purl.org/dc/elements/1.1/"
   xmlns:cc="http://creativecommons.org/ns#"
   xmlns:rdf="http://www.w3.org/1999/02/22-rdf-syntax-ns#"
   xmlns:svg="http://www.w3.org/2000/svg"
   xmlns="http://www.w3.org/2000/svg"
   xmlns:sodipodi="http://sodipodi.sourceforge.net/DTD/sodipodi-0.dtd"
   xmlns:inkscape="http://www.inkscape.org/namespaces/inkscape"
   viewBox="0 0 64 64"
   enable-background="new 0 0 64 64"
   version="1.1"
   id="svg72"
   sodipodi:docname="Shorter.svg"
   inkscape:version="0.92.0 r15299">
  <metadata
     id="metadata78">
    <rdf:RDF>
      <cc:Work
         rdf:about="">
        <dc:format>image/svg+xml</dc:format>
        <dc:type
           rdf:resource="http://purl.org/dc/dcmitype/StillImage" />
      </cc:Work>
    </rdf:RDF>
  </metadata>
  <defs
     id="defs76" />
  <sodipodi:namedview
     pagecolor="#ffffff"
     bordercolor="#666666"
     borderopacity="1"
     objecttolerance="10"
     gridtolerance="10"
     guidetolerance="10"
     inkscape:pageopacity="0"
     inkscape:pageshadow="2"
     inkscape:window-width="1366"
     inkscape:window-height="705"
     id="namedview74"
     showgrid="false"
     inkscape:zoom="3.6875"
     inkscape:cx="32"
     inkscape:cy="32"
     inkscape:window-x="-8"
     inkscape:window-y="-8"
     inkscape:window-maximized="1"
     inkscape:current-layer="svg72" />
  <ellipse
     cx="32"
     cy="23.5"
     rx="15"
     ry="9.6000004"
     id="ellipse44"
     style="fill:#280b0b;fill-opacity:1" />
  <ellipse
     cx="32"
     cy="27.5"
     rx="15"
     ry="9.6000004"
     id="ellipse46"
     style="fill:#c28fef" />
  <path
     d="M 57.3,40.8 C 41.7,25.2 22.2,25.1 6.6,40.8 l 0.1,17.3 c 0,7.5 7.4,15.8 25.7,15.8 17.3,0 24.9,-6.8 24.9,-15.8 V 40.8"
     id="path48"
     inkscape:connector-curvature="0"
     style="fill:#ffdd67" />
  <path
     d="m 39.2,63.7 c 0.1,0.2 0.2,0.4 0.2,0.6 0,1.7 -3.4,3.8 -7.5,3.8 -4.1,0 -7.5,-2.1 -7.5,-3.8 0,-0.2 0.1,-0.5 0.2,-0.6 0,0 3.2,1.5 7.3,1.5 4.1,-0.1 7.3,-1.5 7.3,-1.5"
     id="path50"
     style="fill:#000000"
     inkscape:connector-curvature="0" />
  <path
     d="m 32,21.1 c -29.5,0 -35.8,23.7 -25.2,32 0,0 5.2,-8.8 16.1,-13 28.4,-11 20.5,-19 9.1,-19"
     id="path52"
     style="fill:#200b0b;fill-opacity:1"
     inkscape:connector-curvature="0" />
  <path
     d="m 32,21.1 c -11.4,0 -19.3,8.1 9.1,19 10.9,4.2 16.1,13 16.1,13 10.6,-8.3 4.2,-32 -25.2,-32"
     id="path54"
     style="fill:#280b0b;fill-opacity:1"
     inkscape:connector-curvature="0" />
  <g
     id="g64"
     style="fill:#000000"
     transform="translate(0,12)">
    <path
       d="m 42.8,54.3 c -0.6,0 -1.1,-0.2 -1.6,-0.4 -0.5,-0.2 -1,-0.5 -1.4,-0.9 -0.8,-0.7 -1.6,-1.8 -1.6,-2.9 0.8,0.8 1.5,1.5 2.2,2.2 0.8,0.7 1.6,1.3 2.4,2"
       id="path56"
       style="fill:#000000"
       inkscape:connector-curvature="0" />
    <path
       d="m 21,54.3 c 0.8,-0.8 1.7,-1.3 2.4,-2 0.8,-0.7 1.5,-1.3 2.2,-2.2 0,1.2 -0.7,2.2 -1.6,2.9 -0.4,0.4 -0.9,0.7 -1.4,0.9 -0.4,0.3 -1,0.4 -1.6,0.4"
       id="path58"
       style="fill:#000000"
       inkscape:connector-curvature="0" />
    <path
       d="m 17.8,40.9 -0.3,-3 c 0.8,-0.1 1.9,-0.3 3.1,-0.5 5.9,-1.1 15.7,-3 26.4,0.6 l -1,2.8 c -9.9,-3.4 -19.2,-1.6 -24.8,-0.5 -1.4,0.3 -2.6,0.5 -3.4,0.6"
       id="path60"
       style="fill:#000000"
       inkscape:connector-curvature="0" />
    <circle
       cx="19.700001"
       cy="39.5"
       id="ellipse62"
       style="fill:#000000"
       r="9" />
  </g>
  <circle
     cx="19.700001"
     cy="51.5"
     id="ellipse66"
     r="6"
     style="fill:#b4d7ee" />
  <circle
     cx="44.299999"
     cy="51.5"
     id="ellipse68"
     style="fill:#000000"
     r="9" />
  <circle
     cx="44.299999"
     cy="51.5"
     id="ellipse70"
     r="6"
     style="fill:#b4d7ee" />
</svg>
