<?xml version="1.0" encoding="UTF-8" standalone="no"?>
<svg
   xmlns:dc="http://purl.org/dc/elements/1.1/"
   xmlns:cc="http://creativecommons.org/ns#"
   xmlns:rdf="http://www.w3.org/1999/02/22-rdf-syntax-ns#"
   xmlns:svg="http://www.w3.org/2000/svg"
   xmlns="http://www.w3.org/2000/svg"
   xmlns:sodipodi="http://sodipodi.sourceforge.net/DTD/sodipodi-0.dtd"
   xmlns:inkscape="http://www.inkscape.org/namespaces/inkscape"
   viewBox="0 0 64 64"
   enable-background="new 0 0 64 64"
   version="1.1"
   id="svg72"
   sodipodi:docname="blad.svg"
   inkscape:version="0.92.0 r15299">
  <metadata
     id="metadata78">
    <rdf:RDF>
      <cc:Work
         rdf:about="">
        <dc:format>image/svg+xml</dc:format>
        <dc:type
           rdf:resource="http://purl.org/dc/dcmitype/StillImage" />
        <dc:title />
      </cc:Work>
    </rdf:RDF>
  </metadata>
  <defs
     id="defs76" />
  <sodipodi:namedview
     pagecolor="#ffffff"
     bordercolor="#666666"
     borderopacity="1"
     objecttolerance="10"
     gridtolerance="10"
     guidetolerance="10"
     inkscape:pageopacity="0"
     inkscape:pageshadow="2"
     inkscape:window-width="1366"
     inkscape:window-height="705"
     id="namedview74"
     showgrid="false"
     inkscape:zoom="3.6875"
     inkscape:cx="32"
     inkscape:cy="32"
     inkscape:window-x="-8"
     inkscape:window-y="-8"
     inkscape:window-maximized="1"
     inkscape:current-layer="svg72" />
  <path
     d="M 57.3,28.8 C 41.7,13.2 22.2,13.1 6.6,28.8 l 0.1,17.3 c 0,7.5 7.4,15.8 25.7,15.8 17.3,0 24.9,-6.8 24.9,-15.8 V 28.8"
     id="path48"
     style="fill:#fae3c3;fill-opacity:1"
     inkscape:connector-curvature="0" />
  <path
     d="m 39.2,51.7 c 0.1,0.2 0.2,0.4 0.2,0.6 0,1.7 -3.4,3.8 -7.5,3.8 -4.1,0 -7.5,-2.1 -7.5,-3.8 0,-0.2 0.1,-0.5 0.2,-0.6 0,0 3.2,1.5 7.3,1.5 4.1,-0.1 7.3,-1.5 7.3,-1.5"
     id="path50"
     style="fill:#000000"
     inkscape:connector-curvature="0" />
  <path
     d="m 27.066359,9.1 c -20.784057,0 -25.2226863,23.7 -17.754517,32 0,0 3.663631,-8.8 11.343164,-13 20.009058,-11 14.443158,-19 6.411353,-19"
     id="path52"
     style="fill:#fae3c3;stroke-width:0.83937138;fill-opacity:1"
     inkscape:connector-curvature="0" />
  <path
     d="m 32.605559,9.1 c -9.868298,0 -16.706855,8.1 7.877326,19 9.435477,4.2 13.936806,13 13.936806,13 9.175786,-8.3 3.635689,-32 -21.814132,-32"
     id="path54"
     style="fill:#fae3c3;stroke-width:0.93039787;fill-opacity:1"
     inkscape:connector-curvature="0" />
  <g
     id="g64"
     style="fill:#000000">
    <path
       d="m 42.8,54.3 c -0.6,0 -1.1,-0.2 -1.6,-0.4 -0.5,-0.2 -1,-0.5 -1.4,-0.9 -0.8,-0.7 -1.6,-1.8 -1.6,-2.9 0.8,0.8 1.5,1.5 2.2,2.2 0.8,0.7 1.6,1.3 2.4,2"
       id="path56"
       style="fill:#000000"
       inkscape:connector-curvature="0" />
    <path
       d="m 21,54.3 c 0.8,-0.8 1.7,-1.3 2.4,-2 0.8,-0.7 1.5,-1.3 2.2,-2.2 0,1.2 -0.7,2.2 -1.6,2.9 -0.4,0.4 -0.9,0.7 -1.4,0.9 -0.4,0.3 -1,0.4 -1.6,0.4"
       id="path58"
       style="fill:#000000"
       inkscape:connector-curvature="0" />
    <path
       d="m 17.8,40.9 -0.3,-3 c 0.8,-0.1 1.9,-0.3 3.1,-0.5 5.9,-1.1 15.7,-3 26.4,0.6 l -1,2.8 c -9.9,-3.4 -19.2,-1.6 -24.8,-0.5 -1.4,0.3 -2.6,0.5 -3.4,0.6"
       id="path60"
       style="fill:#000000"
       inkscape:connector-curvature="0" />
    <circle
       cx="19.700001"
       cy="39.5"
       id="ellipse62"
       style="fill:#000000"
       r="9" />
  </g>
  <circle
     cx="19.700001"
     cy="39.5"
     id="ellipse66"
     r="6"
     style="fill:#b4d7ee" />
  <circle
     cx="44.299999"
     cy="39.5"
     id="ellipse68"
     style="fill:#000000"
     r="9" />
  <circle
     cx="44.299999"
     cy="39.5"
     id="ellipse70"
     r="6"
     style="fill:#b4d7ee" />
</svg>
