<?xml version="1.0" encoding="UTF-8" standalone="no"?>
<svg
   xmlns:dc="http://purl.org/dc/elements/1.1/"
   xmlns:cc="http://creativecommons.org/ns#"
   xmlns:rdf="http://www.w3.org/1999/02/22-rdf-syntax-ns#"
   xmlns:svg="http://www.w3.org/2000/svg"
   xmlns="http://www.w3.org/2000/svg"
   xmlns:sodipodi="http://sodipodi.sourceforge.net/DTD/sodipodi-0.dtd"
   xmlns:inkscape="http://www.inkscape.org/namespaces/inkscape"
   viewBox="0 0 64 64"
   enable-background="new 0 0 64 64"
   version="1.1"
   id="svg6282"
   sodipodi:docname="Male Older My Height My Skin Red Hair.svg"
   inkscape:version="0.92.0 r15299">
  <metadata
     id="metadata6288">
    <rdf:RDF>
      <cc:Work
         rdf:about="">
        <dc:format>image/svg+xml</dc:format>
        <dc:type
           rdf:resource="http://purl.org/dc/dcmitype/StillImage" />
        <dc:title />
      </cc:Work>
    </rdf:RDF>
  </metadata>
  <defs
     id="defs6286" />
  <sodipodi:namedview
     pagecolor="#ffffff"
     bordercolor="#666666"
     borderopacity="1"
     objecttolerance="10"
     gridtolerance="10"
     guidetolerance="10"
     inkscape:pageopacity="0"
     inkscape:pageshadow="2"
     inkscape:window-width="1366"
     inkscape:window-height="705"
     id="namedview6284"
     showgrid="false"
     inkscape:zoom="3.6875"
     inkscape:cx="-12.067797"
     inkscape:cy="32"
     inkscape:window-x="-8"
     inkscape:window-y="-8"
     inkscape:window-maximized="1"
     inkscape:current-layer="svg6282" />
  <path
     d="M 4.9830508,35.932203 H 56.983051 c 0,-27.9999996 -4,-33.9999996 -26,-33.9999996 -22,0 -26.0000002,6 -26.0000002,33.9999996 z"
     id="path3680"
     style="fill:#280b0b;fill-opacity:1"
     inkscape:connector-curvature="0" />
  <path
     d="m 54.783051,29.832203 c -0.2,1.1 -0.4,2.1 -0.7,2.7 -0.6,1 -1.7,1.6 -1.7,1.6 0,0 0.3,-2.1 0.2,-5 -1.2,-17.4 -2.2,-12.6 -21.6,-12.6 -19.4,0 -20.4,-4.8 -21.6,12.5 -0.1,2.9 0.2,5.1 0.2,5.1 0,0 -1.1,-0.6 -1.7,-1.6 -0.3,-0.6 -0.5,-1.6 -0.7,-2.7 -1.8000002,-0.5 -4.2000002,-0.1 -4.2000002,5.1 0,3.2 1.2,5.9 5.3000002,6.2 1.3,10.2 7.3,15.4 17.2,19.9 2.7,1.2 8.3,1.2 11,0 10,-4.5 15.9,-9.7 17.2,-19.9 4.1,-0.3 5.3,-2.9 5.3,-6.2 0,-5.2 -2.4,-5.6 -4.2,-5.1"
     id="path3682"
     inkscape:connector-curvature="0"
     style="fill:#ffdd67" />
  <path
     d="m 39.983051,48.832203 c 0,3.4 -4.5,5.1 -9,5.1 -4.5,0 -9,-1.7 -9,-5.1 0,0 0,-0.9 0.9,-0.9 4.1,0 12.1,0 16.2,0 0.9,0 0.9,0.9 0.9,0.9"
     id="path3684"
     inkscape:connector-curvature="0"
     style="fill:#937237" />
  <path
     d="m 18.983051,28.532203 c -5,0 -7,1.8 -7,3.6 0,1.8 0,4.4 6.6,4.4 6.4,0 7.4,-0.8 7.4,-3.5 0,-1.8 -2,-4.5 -7,-4.5"
     id="path3686"
     inkscape:connector-curvature="0"
     style="fill:#f5f5f5" />
  <circle
     cx="19.483051"
     cy="31.532202"
     r="4.5"
     id="circle3688"
     style="fill:#664e27" />
  <path
     d="m 20.983051,31.532203 c 0,0.8 -0.7,1.5 -1.5,1.5 -0.8,0 -1.5,-0.7 -1.5,-1.5 0,-0.8 0.7,-1.5 1.5,-1.5 0.8,0 1.5,0.7 1.5,1.5"
     id="path3690"
     inkscape:connector-curvature="0"
     style="fill:#000000" />
  <path
     d="m 11.983051,32.032203 c 0,-7 14,-7 14,1 -2,-6 -12,-6 -14,-1"
     id="path3692"
     style="fill:#280b0b;fill-opacity:1"
     inkscape:connector-curvature="0" />
  <path
     d="m 42.983051,28.532203 c 5,0 7,1.8 7,3.6 0,1.8 0,4.4 -6.6,4.4 -6.4,0 -7.4,-0.8 -7.4,-3.5 0,-1.8 2,-4.5 7,-4.5"
     id="path3694"
     inkscape:connector-curvature="0"
     style="fill:#f5f5f5" />
  <circle
     cx="42.483051"
     cy="31.532202"
     r="4.5"
     id="circle3696"
     style="fill:#664e27" />
  <path
     d="m 40.983051,31.532203 c 0,0.8 0.7,1.5 1.5,1.5 0.8,0 1.5,-0.7 1.5,-1.5 0,-0.8 -0.7,-1.5 -1.5,-1.5 -0.8,0 -1.5,0.7 -1.5,1.5"
     id="path3698"
     inkscape:connector-curvature="0"
     style="fill:#000000" />
  <path
     d="m 49.983051,32.032203 c 0,-7 -14,-7 -14,1 2,-6 12,-6 14,-1"
     id="path3700"
     style="fill:#280b0b;fill-opacity:1"
     inkscape:connector-curvature="0" />
  <path
     d="m 30.983051,44.932203 c -4.2,0 -6.3,-3 -4.2,-3 2.1,0 6.3,0 8.4,0 2.1,0 0,3 -4.2,3"
     id="path3702"
     inkscape:connector-curvature="0"
     style="fill:#eba352" />
</svg>
