<?xml version="1.0" encoding="UTF-8" standalone="no"?>
<svg
   xmlns:dc="http://purl.org/dc/elements/1.1/"
   xmlns:cc="http://creativecommons.org/ns#"
   xmlns:rdf="http://www.w3.org/1999/02/22-rdf-syntax-ns#"
   xmlns:svg="http://www.w3.org/2000/svg"
   xmlns="http://www.w3.org/2000/svg"
   xmlns:sodipodi="http://sodipodi.sourceforge.net/DTD/sodipodi-0.dtd"
   xmlns:inkscape="http://www.inkscape.org/namespaces/inkscape"
   viewBox="0 0 64 64"
   enable-background="new 0 0 64 64"
   version="1.1"
   id="svg66"
   sodipodi:docname="Male Older my taller.svg"
   inkscape:version="0.92.0 r15299">
  <metadata
     id="metadata72">
    <rdf:RDF>
      <cc:Work
         rdf:about="">
        <dc:format>image/svg+xml</dc:format>
        <dc:type
           rdf:resource="http://purl.org/dc/dcmitype/StillImage" />
        <dc:title />
      </cc:Work>
    </rdf:RDF>
  </metadata>
  <defs
     id="defs70" />
  <sodipodi:namedview
     pagecolor="#ffffff"
     bordercolor="#666666"
     borderopacity="1"
     objecttolerance="10"
     gridtolerance="10"
     guidetolerance="10"
     inkscape:pageopacity="0"
     inkscape:pageshadow="2"
     inkscape:window-width="1366"
     inkscape:window-height="705"
     id="namedview68"
     showgrid="false"
     inkscape:zoom="3.6875"
     inkscape:cx="32"
     inkscape:cy="32"
     inkscape:window-x="-8"
     inkscape:window-y="-8"
     inkscape:window-maximized="1"
     inkscape:current-layer="svg66" />
  <path
     d="m 32.1,-5.1 c 0,0 -0.1,0 0,0 -0.1,0 -0.1,0 -0.2,0 C 6.9,-5.1 2,3.7 2,17.5 l 0.9,9.4 h 58.3 l 0.9,-9.4 C 62,3.7 57.1,-5.1 32.1,-5.1"
     id="path42"
     style="fill:#280b0b;fill-opacity:1"
     inkscape:connector-curvature="0" />
  <path
     d="M 58.5,22.8 C 49.4,19.2 56.5,9.3 56.8,7.3 56.8,7.3 54.7,-12 32,-12 9.3,-12 7.2,7.3 7.2,7.3 c 0.3,2 7.5,11.9 -1.7,15.5 0,0 -3.4,-0.4 -3.4,3.7 0,4.9 3.5,4.1 3.5,4.1 0,7.5 7.4,17.4 26.4,17.4 19,0 26.4,-9.9 26.4,-17.4 0,0 3.5,0.8 3.5,-4.1 0,-4.1 -3.4,-3.7 -3.4,-3.7"
     id="path44"
     inkscape:connector-curvature="0"
     style="fill:#fae3c3;fill-opacity:1" />
  <g
     id="g52"
     style="fill:#280b0b;fill-opacity:1"
     transform="translate(0,-14)">
    <path
       d="m 40.7,52.9 c 0.2,0 0.3,-0.9 0.3,-1.3 0,-2.6 -4,-4.8 -9,-4.8 -5,0 -9,2.3 -9,4.9 0,0.3 0.1,1.2 0.2,1.2 0,0 17.5,0 17.5,0"
       id="path46"
       style="fill:#280b0b;fill-opacity:1"
       inkscape:connector-curvature="0" />
    <path
       d="m 17.6,9.8 c 2.3,-0.7 4.7,-1.5 7.1,-2 2.4,-0.5 4.9,-0.9 7.3,-1 2.5,-0.1 5,0.1 7.4,0.6 2.4,0.5 4.8,1.3 7,2.4 C 44,9.4 41.6,9 39.2,8.9 36.8,8.7 34.4,8.7 32.1,8.8 29.7,8.9 27.3,9.1 24.9,9.3 22.5,9.5 20.1,9.8 17.6,9.8"
       id="path48"
       style="fill:#280b0b;fill-opacity:1"
       inkscape:connector-curvature="0" />
    <path
       d="m 14.5,14 c 2.9,-0.7 5.7,-1.5 8.6,-2 2.9,-0.5 5.9,-0.9 8.9,-1 3,-0.1 6,0.1 8.9,0.6 3,0.5 5.9,1.2 8.6,2.4 -2.9,-0.4 -5.8,-0.7 -8.8,-0.9 -2.9,-0.2 -5.8,-0.2 -8.7,-0.1 -2.9,0.1 -5.8,0.3 -8.7,0.5 -2.9,0.2 -5.8,0.6 -8.8,0.5"
       id="path50"
       style="fill:#280b0b;fill-opacity:1"
       inkscape:connector-curvature="0" />
  </g>
  <g
     id="g58"
     style="fill:#000000"
     transform="translate(0,-14)">
    <path
       d="m 17.8,39.3 -0.3,-3 c 0.8,-0.1 1.9,-0.3 3.1,-0.5 5.9,-1.1 15.7,-3 26.4,0.6 l -1,2.8 C 36.1,35.8 26.8,37.6 21.2,38.7 19.8,39 18.6,39.2 17.8,39.3"
       id="path54"
       style="fill:#000000"
       inkscape:connector-curvature="0" />
    <circle
       cx="19.700001"
       cy="37.900002"
       id="ellipse56"
       style="fill:#000000"
       r="9" />
  </g>
  <circle
     cx="19.700001"
     cy="23.900002"
     id="ellipse60"
     r="6"
     style="fill:#999999" />
  <circle
     cx="44.299999"
     cy="23.900002"
     id="ellipse62"
     style="fill:#000000"
     r="9" />
  <circle
     cx="44.299999"
     cy="23.900002"
     id="ellipse64"
     r="6"
     style="fill:#999999" />
</svg>
