<?xml version="1.0" encoding="UTF-8" standalone="no"?>
<svg
   xmlns:dc="http://purl.org/dc/elements/1.1/"
   xmlns:cc="http://creativecommons.org/ns#"
   xmlns:rdf="http://www.w3.org/1999/02/22-rdf-syntax-ns#"
   xmlns:svg="http://www.w3.org/2000/svg"
   xmlns="http://www.w3.org/2000/svg"
   xmlns:sodipodi="http://sodipodi.sourceforge.net/DTD/sodipodi-0.dtd"
   xmlns:inkscape="http://www.inkscape.org/namespaces/inkscape"
   viewBox="0 0 64 64"
   enable-background="new 0 0 64 64"
   version="1.1"
   id="svg102"
   sodipodi:docname="blad.svg"
   inkscape:version="0.92.0 r15299">
  <metadata
     id="metadata108">
    <rdf:RDF>
      <cc:Work
         rdf:about="">
        <dc:format>image/svg+xml</dc:format>
        <dc:type
           rdf:resource="http://purl.org/dc/dcmitype/StillImage" />
        <dc:title />
      </cc:Work>
    </rdf:RDF>
  </metadata>
  <defs
     id="defs106" />
  <sodipodi:namedview
     pagecolor="#ffffff"
     bordercolor="#666666"
     borderopacity="1"
     objecttolerance="10"
     gridtolerance="10"
     guidetolerance="10"
     inkscape:pageopacity="0"
     inkscape:pageshadow="2"
     inkscape:window-width="1366"
     inkscape:window-height="705"
     id="namedview104"
     showgrid="false"
     inkscape:zoom="3.6875"
     inkscape:cx="32"
     inkscape:cy="32"
     inkscape:window-x="-8"
     inkscape:window-y="-8"
     inkscape:window-maximized="1"
     inkscape:current-layer="svg102" />
  <path
     d="m 57.342034,40.637761 c 6.143955,0 6.143955,-9.681119 0,-9.681119 v -3.22704 c 0,0 -34.683616,-0.968112 -42.6113,-13.983839 1.981921,13.123295 -7.630395,17.210879 -7.630395,17.210879 -6.14395482,0 -6.14395482,9.681119 0,9.681119 C 7.100339,48.167521 14.33435,60 32.171638,60 50.008927,60 57.342034,48.167521 57.342034,40.637761"
     id="path84"
     style="fill:#ffdd67;stroke-width:1.03245163;fill-opacity:1"
     inkscape:connector-curvature="0" />
  <g
     id="g90"
     style="fill:#ffffff">
    <circle
       cx="44.5"
       cy="36.5"
       r="6.5"
       id="circle86" />
    <circle
       cx="19.5"
       cy="36.5"
       r="6.5"
       id="circle88" />
  </g>
  <circle
     cx="44.5"
     cy="36.5"
     r="4.5"
     id="circle92"
     style="fill:#784421" />
  <circle
     cx="44.5"
     cy="36.5"
     r="1.5"
     id="circle94"
     style="fill:#231f20" />
  <circle
     cx="19.5"
     cy="36.5"
     r="4.5"
     id="circle96"
     style="fill:#784421" />
  <circle
     cx="19.5"
     cy="36.5"
     r="1.5"
     id="circle98"
     style="fill:#231f20" />
  <path
     d="m 40.1,48.1 c -5.2,3.6 -11,3.6 -16.2,0 -0.6,-0.4 -1.2,0.3 -0.8,1 1.6,2.6 4.8,4.9 8.9,4.9 4.1,0 7.3,-2.3 8.9,-4.9 0.4,-0.7 -0.2,-1.4 -0.8,-1"
     id="path100"
     style="fill:#c87137"
     inkscape:connector-curvature="0" />
  <path
     inkscape:connector-curvature="0"
     d="m 9.221384,29.729602 h 47.994548 c 0,-17.600179 -3.69189,-21.371646 -23.997278,-21.371646 -20.305384,0 -23.99727,3.771467 -23.99727,21.371646 z"
     id="path10"
     style="fill:#ffdd67;stroke-width:0.76168215;fill-opacity:1" />
</svg>
