<?xml version="1.0" encoding="UTF-8" standalone="no"?>
<svg
   xmlns:dc="http://purl.org/dc/elements/1.1/"
   xmlns:cc="http://creativecommons.org/ns#"
   xmlns:rdf="http://www.w3.org/1999/02/22-rdf-syntax-ns#"
   xmlns:svg="http://www.w3.org/2000/svg"
   xmlns="http://www.w3.org/2000/svg"
   xmlns:sodipodi="http://sodipodi.sourceforge.net/DTD/sodipodi-0.dtd"
   xmlns:inkscape="http://www.inkscape.org/namespaces/inkscape"
   viewBox="0 0 64 64"
   enable-background="new 0 0 64 64"
   version="1.1"
   id="svg34"
   sodipodi:docname="Male blad taller.svg"
   inkscape:version="0.92.0 r15299">
  <metadata
     id="metadata40">
    <rdf:RDF>
      <cc:Work
         rdf:about="">
        <dc:format>image/svg+xml</dc:format>
        <dc:type
           rdf:resource="http://purl.org/dc/dcmitype/StillImage" />
        <dc:title></dc:title>
      </cc:Work>
    </rdf:RDF>
  </metadata>
  <defs
     id="defs38" />
  <sodipodi:namedview
     pagecolor="#ffffff"
     bordercolor="#666666"
     borderopacity="1"
     objecttolerance="10"
     gridtolerance="10"
     guidetolerance="10"
     inkscape:pageopacity="0"
     inkscape:pageshadow="2"
     inkscape:window-width="1366"
     inkscape:window-height="705"
     id="namedview36"
     showgrid="false"
     inkscape:zoom="5.7673397"
     inkscape:cx="31.441367"
     inkscape:cy="30.070177"
     inkscape:window-x="-8"
     inkscape:window-y="-8"
     inkscape:window-maximized="1"
     inkscape:current-layer="svg34" />
  <path
     d="M 6,20 H 58 C 58,-8 54,-14 32,-14 10,-14 6,-8 6,20 Z"
     id="path10"
     style="fill:#ffdd55"
     inkscape:connector-curvature="0" />
  <path
     d="m 55.8,13.9 c -0.2,1.1 -0.4,2.1 -0.7,2.7 -0.6,1 -1.7,1.6 -1.7,1.6 0,0 0.3,-2.1 0.2,-5 C 52.4,-4.2 51.4,0.6 32,0.6 12.6,0.6 11.6,-4.2 10.4,13.1 c -0.1,2.9 0.2,5.1 0.2,5.1 0,0 -1.1,-0.6 -1.7,-1.6 C 8.6,16 8.4,15 8.2,13.9 6.4,13.4 4,13.8 4,19 c 0,3.2 1.2,5.9 5.3,6.2 1.3,10.2 7.3,15.4 17.2,19.9 2.7,1.2 8.3,1.2 11,0 10,-4.5 15.9,-9.7 17.2,-19.9 4.1,-0.3 5.3,-2.9 5.3,-6.2 0,-5.2 -2.4,-5.6 -4.2,-5.1"
     id="path12"
     inkscape:connector-curvature="0"
     style="fill:#ffdd67" />
  <path
     d="m 41,32.9 c 0,3.4 -4.5,5.1 -9,5.1 -4.5,0 -9,-1.7 -9,-5.1 0,0 0,-0.9 0.9,-0.9 4.1,0 12.1,0 16.2,0 0.9,0 0.9,0.9 0.9,0.9"
     id="path14"
     inkscape:connector-curvature="0"
     style="fill:#937237" />
  <path
     d="m 20,12.6 c -5,0 -7,1.8 -7,3.6 0,1.8 0,4.4 6.6,4.4 6.4,0 7.4,-0.8 7.4,-3.5 0,-1.8 -2,-4.5 -7,-4.5"
     id="path16"
     inkscape:connector-curvature="0"
     style="fill:#f5f5f5" />
  <circle
     cx="20.5"
     cy="15.6"
     r="4.5"
     id="circle18"
     style="fill:#664e27" />
  <path
     d="m 22,15.6 c 0,0.8 -0.7,1.5 -1.5,1.5 -0.8,0 -1.5,-0.7 -1.5,-1.5 0,-0.8 0.7,-1.5 1.5,-1.5 0.8,0 1.5,0.7 1.5,1.5"
     id="path20"
     style="fill:#000000"
     inkscape:connector-curvature="0" />
  <path
     d="m 13,16.1 c 0,-7 14,-7 14,1 -2,-6 -12,-6 -14,-1"
     id="path22"
     style="fill:#552200"
     inkscape:connector-curvature="0" />
  <path
     d="m 44,12.6 c 5,0 7,1.8 7,3.6 0,1.8 0,4.4 -6.6,4.4 -6.4,0 -7.4,-0.8 -7.4,-3.5 0,-1.8 2,-4.5 7,-4.5"
     id="path24"
     inkscape:connector-curvature="0"
     style="fill:#f5f5f5" />
  <circle
     cx="43.5"
     cy="15.6"
     r="4.5"
     id="circle26"
     style="fill:#664e27" />
  <path
     d="m 42,15.6 c 0,0.8 0.7,1.5 1.5,1.5 0.8,0 1.5,-0.7 1.5,-1.5 0,-0.8 -0.7,-1.5 -1.5,-1.5 -0.8,0 -1.5,0.7 -1.5,1.5"
     id="path28"
     style="fill:#000000"
     inkscape:connector-curvature="0" />
  <path
     d="m 51,16.1 c 0,-7 -14,-7 -14,1 2,-6 12,-6 14,-1"
     id="path30"
     style="fill:#552200"
     inkscape:connector-curvature="0" />
  <path
     d="m 32,29 c -4.2,0 -6.3,-3 -4.2,-3 2.1,0 6.3,0 8.4,0 2.1,0 0,3 -4.2,3"
     id="path32"
     inkscape:connector-curvature="0"
     style="fill:#eba352" />
</svg>
