<?xml version="1.0" encoding="UTF-8" standalone="no"?>
<svg
   xmlns:dc="http://purl.org/dc/elements/1.1/"
   xmlns:cc="http://creativecommons.org/ns#"
   xmlns:rdf="http://www.w3.org/1999/02/22-rdf-syntax-ns#"
   xmlns:svg="http://www.w3.org/2000/svg"
   xmlns="http://www.w3.org/2000/svg"
   xmlns:sodipodi="http://sodipodi.sourceforge.net/DTD/sodipodi-0.dtd"
   xmlns:inkscape="http://www.inkscape.org/namespaces/inkscape"
   viewBox="0 0 64 64"
   enable-background="new 0 0 64 64"
   version="1.1"
   id="svg102"
   sodipodi:docname="taller.svg"
   inkscape:version="0.92.0 r15299">
  <metadata
     id="metadata108">
    <rdf:RDF>
      <cc:Work
         rdf:about="">
        <dc:format>image/svg+xml</dc:format>
        <dc:type
           rdf:resource="http://purl.org/dc/dcmitype/StillImage" />
        <dc:title />
      </cc:Work>
    </rdf:RDF>
  </metadata>
  <defs
     id="defs106" />
  <sodipodi:namedview
     pagecolor="#ffffff"
     bordercolor="#666666"
     borderopacity="1"
     objecttolerance="10"
     gridtolerance="10"
     guidetolerance="10"
     inkscape:pageopacity="0"
     inkscape:pageshadow="2"
     inkscape:window-width="1366"
     inkscape:window-height="705"
     id="namedview104"
     showgrid="false"
     inkscape:zoom="3.6875"
     inkscape:cx="32"
     inkscape:cy="32"
     inkscape:window-x="-8"
     inkscape:window-y="-8"
     inkscape:window-maximized="1"
     inkscape:current-layer="svg102" />
  <path
     d="M 57.9,22 C 57.9,22 61,16.4 61,8 61,-3 52.9,-16 32,-16 11.1,-16 3,-3 3,8 3,16.4 6.1,22 6.1,22 2.5,26.1 0.3,34.4 3.4,39.8 4.7,42 17.5,49.8 18.7,35.9 h 26.4 c 1.3,13.8 14.1,6.1 15.3,3.9 3.2,-5.4 1,-13.7 -2.5,-17.8"
     id="path80"
     style="fill:#280b0b;fill-opacity:1"
     inkscape:connector-curvature="0" />
  <path
     d="M 32,-12 C 16.7,-12 5.5,-4 5.5,6 5.5,6 9.6,-9 32,-9 54.4,-9 57.5,6 57.5,6 57.5,-4 47.3,-12 32,-12 Z"
     id="path82"
     inkscape:connector-curvature="0"
     style="fill:#c28fef" />
  <path
     d="m 57.3,24 c 6.2,0 6.2,-9 0,-9 v -3 c 0,0 -35,-0.9 -43,-13 2,12.2 -7.7,16 -7.7,16 -6.2,0 -6.2,9 0,9 0,7 7.3,18 25.3,18 18,0 25.4,-11 25.4,-18"
     id="path84"
     style="fill:#fae3c3;fill-opacity:1"
     inkscape:connector-curvature="0" />
  <g
     id="g90"
     transform="translate(0,-18)"
     style="fill:#ffffff">
    <circle
       cx="44.5"
       cy="36.5"
       r="6.5"
       id="circle86" />
    <circle
       cx="19.5"
       cy="36.5"
       r="6.5"
       id="circle88" />
  </g>
  <circle
     cx="44.5"
     cy="18.5"
     r="4.5"
     id="circle92"
     style="fill:#664e27" />
  <circle
     cx="44.5"
     cy="18.5"
     r="1.5"
     id="circle94"
     style="fill:#231f20" />
  <circle
     cx="19.5"
     cy="18.5"
     r="4.5"
     id="circle96"
     style="fill:#664e27" />
  <circle
     cx="19.5"
     cy="18.5"
     r="1.5"
     id="circle98"
     style="fill:#231f20" />
  <path
     d="m 40.1,30.1 c -5.2,3.6 -11,3.6 -16.2,0 -0.6,-0.4 -1.2,0.3 -0.8,1 1.6,2.6 4.8,4.9 8.9,4.9 4.1,0 7.3,-2.3 8.9,-4.9 0.4,-0.7 -0.2,-1.4 -0.8,-1"
     id="path100"
     inkscape:connector-curvature="0"
     style="fill:#937237" />
</svg>
