<?xml version="1.0" encoding="UTF-8" standalone="no"?>
<svg
   xmlns:dc="http://purl.org/dc/elements/1.1/"
   xmlns:cc="http://creativecommons.org/ns#"
   xmlns:rdf="http://www.w3.org/1999/02/22-rdf-syntax-ns#"
   xmlns:svg="http://www.w3.org/2000/svg"
   xmlns="http://www.w3.org/2000/svg"
   xmlns:sodipodi="http://sodipodi.sourceforge.net/DTD/sodipodi-0.dtd"
   xmlns:inkscape="http://www.inkscape.org/namespaces/inkscape"
   viewBox="0 0 64 64"
   enable-background="new 0 0 64 64"
   version="1.1"
   id="svg34"
   sodipodi:docname="Male blond.svg"
   inkscape:version="0.92.0 r15299">
  <metadata
     id="metadata40">
    <rdf:RDF>
      <cc:Work
         rdf:about="">
        <dc:format>image/svg+xml</dc:format>
        <dc:type
           rdf:resource="http://purl.org/dc/dcmitype/StillImage" />
        <dc:title />
      </cc:Work>
    </rdf:RDF>
  </metadata>
  <defs
     id="defs38" />
  <sodipodi:namedview
     pagecolor="#ffffff"
     bordercolor="#666666"
     borderopacity="1"
     objecttolerance="10"
     gridtolerance="10"
     guidetolerance="10"
     inkscape:pageopacity="0"
     inkscape:pageshadow="2"
     inkscape:window-width="1366"
     inkscape:window-height="705"
     id="namedview36"
     showgrid="false"
     inkscape:zoom="8.15625"
     inkscape:cx="32"
     inkscape:cy="32"
     inkscape:window-x="-8"
     inkscape:window-y="-8"
     inkscape:window-maximized="1"
     inkscape:current-layer="svg34" />
  <path
     d="M6,36h52C58,8,54,2,32,2S6,8,6,36z"
     fill="#ffb300"
     id="path10"
     style="fill:#93ac9d;fill-opacity:1" />
  <path
     d="m55.8 29.9c-.2 1.1-.4 2.1-.7 2.7-.6 1-1.7 1.6-1.7 1.6s.3-2.1.2-5c-1.2-17.4-2.2-12.6-21.6-12.6-19.4 0-20.4-4.8-21.6 12.5-.1 2.9.2 5.1.2 5.1s-1.1-.6-1.7-1.6c-.3-.6-.5-1.6-.7-2.7-1.8-.5-4.2-.1-4.2 5.1 0 3.2 1.2 5.9 5.3 6.2 1.3 10.2 7.3 15.4 17.2 19.9 2.7 1.2 8.3 1.2 11 0 10-4.5 15.9-9.7 17.2-19.9 4.1-.3 5.3-2.9 5.3-6.2 0-5.2-2.4-5.6-4.2-5.1"
     fill="#ffdd67"
     id="path12" />
  <path
     d="m41 48.9c0 3.4-4.5 5.1-9 5.1s-9-1.7-9-5.1c0 0 0-.9.9-.9 4.1 0 12.1 0 16.2 0 .9 0 .9.9.9.9"
     fill="#937237"
     id="path14" />
  <path
     d="m20 28.6c-5 0-7 1.8-7 3.6 0 1.8 0 4.4 6.6 4.4 6.4 0 7.4-.8 7.4-3.5 0-1.8-2-4.5-7-4.5"
     fill="#f5f5f5"
     id="path16" />
  <circle
     cx="20.5"
     cy="31.6"
     r="4.5"
     fill="#664e27"
     id="circle18" />
  <path
     d="m22 31.6c0 .8-.7 1.5-1.5 1.5-.8 0-1.5-.7-1.5-1.5 0-.8.7-1.5 1.5-1.5.8 0 1.5.7 1.5 1.5"
     fill="#231f20"
     id="path20"
     style="fill:#000000" />
  <path
     d="m13 32.1c0-7 14-7 14 1-2-6-12-6-14-1"
     fill="#664e27"
     id="path22"
     style="fill:#93ac9d;fill-opacity:1" />
  <path
     d="m44 28.6c5 0 7 1.8 7 3.6 0 1.8 0 4.4-6.6 4.4-6.4 0-7.4-.8-7.4-3.5 0-1.8 2-4.5 7-4.5"
     fill="#f5f5f5"
     id="path24" />
  <circle
     cx="43.5"
     cy="31.6"
     r="4.5"
     fill="#664e27"
     id="circle26" />
  <path
     d="m42 31.6c0 .8.7 1.5 1.5 1.5.8 0 1.5-.7 1.5-1.5 0-.8-.7-1.5-1.5-1.5-.8 0-1.5.7-1.5 1.5"
     fill="#231f20"
     id="path28"
     style="fill:#000000" />
  <path
     d="m51 32.1c0-7-14-7-14 1 2-6 12-6 14-1"
     fill="#664e27"
     id="path30"
     style="fill:#93ac9d;fill-opacity:1" />
  <path
     d="m32 45c-4.2 0-6.3-3-4.2-3s6.3 0 8.4 0 0 3-4.2 3"
     fill="#eba352"
     id="path32" />
</svg>
