<?xml version="1.0" encoding="UTF-8" standalone="no"?>
<svg
   xmlns:dc="http://purl.org/dc/elements/1.1/"
   xmlns:cc="http://creativecommons.org/ns#"
   xmlns:rdf="http://www.w3.org/1999/02/22-rdf-syntax-ns#"
   xmlns:svg="http://www.w3.org/2000/svg"
   xmlns="http://www.w3.org/2000/svg"
   xmlns:sodipodi="http://sodipodi.sourceforge.net/DTD/sodipodi-0.dtd"
   xmlns:inkscape="http://www.inkscape.org/namespaces/inkscape"
   viewBox="0 0 64 64"
   enable-background="new 0 0 64 64"
   version="1.1"
   id="svg36"
   sodipodi:docname="female shorter.svg"
   inkscape:version="0.92.0 r15299">
  <metadata
     id="metadata42">
    <rdf:RDF>
      <cc:Work
         rdf:about="">
        <dc:format>image/svg+xml</dc:format>
        <dc:type
           rdf:resource="http://purl.org/dc/dcmitype/StillImage" />
        <dc:title />
      </cc:Work>
    </rdf:RDF>
  </metadata>
  <defs
     id="defs40" />
  <sodipodi:namedview
     pagecolor="#ffffff"
     bordercolor="#666666"
     borderopacity="1"
     objecttolerance="10"
     gridtolerance="10"
     guidetolerance="10"
     inkscape:pageopacity="0"
     inkscape:pageshadow="2"
     inkscape:window-width="1366"
     inkscape:window-height="705"
     id="namedview38"
     showgrid="false"
     inkscape:zoom="4.078125"
     inkscape:cx="28.08972"
     inkscape:cy="33.476262"
     inkscape:window-x="-8"
     inkscape:window-y="-8"
     inkscape:window-maximized="1"
     inkscape:current-layer="svg36" />
  <path
     d="M 32,18 C 13.9,18 4,29.4 4,44.5 V 78 H 60 V 44.5 C 60,22.1 44.8,22.5 44.8,22.5 44.8,22.5 43.7,18 32,18 Z"
     id="path10"
     style="fill:#280b0b;fill-opacity:1"
     inkscape:connector-curvature="0" />
  <path
     d="M 10.4,56.7 C 10.4,56.7 6,55.6 6,49.2 6,44.1 9.3,43.3 9.3,43.3 21.1,43.2 43,28 43,28 c 0,0 4.6,13.4 11.6,15.2 0,0 3.4,0.6 3.4,5.9 0,6.4 -4.5,7.5 -4.5,7.5 C 53.4,66.3 40.1,78 32,78 23.9,78 10.4,66.3 10.4,56.7 Z"
     id="path12"
     style="fill:#ffdd67;fill-opacity:1"
     inkscape:connector-curvature="0" />
  <path
     d="m 32,63 c -4.2,0 -6.3,-3 -4.2,-3 2.1,0 6.3,0 8.4,0 2.1,0 0,3 -4.2,3"
     id="path14"
     inkscape:connector-curvature="0"
     style="fill:#eba352" />
  <path
     d="M 38.3,54.2 C 36.8,54.2 37,52.4 37,52.4 39.2,40.9 52,47 52,47 c 1,2 -2.3,6.9 -3.2,7.2 -4.2,1 -10.5,0 -10.5,0"
     id="path16"
     inkscape:connector-curvature="0"
     style="fill:#f5f5f5" />
  <path
     d="m 48.5,49.5 c 0,2.5 -2,4.5 -4.5,4.5 -2.5,0 -4.5,-2 -4.5,-4.5 0,-2.5 2,-4.5 4.5,-4.5 2.5,0 4.5,2 4.5,4.5"
     id="path18"
     inkscape:connector-curvature="0"
     style="fill:#664e27" />
  <circle
     cx="44"
     cy="49.5"
     r="1.5"
     id="circle20"
     style="fill:#000000" />
  <path
     d="M 37,52.3 C 39.2,38.6 50.5,47.7 55,45.8 50.5,50.1 41.5,40.9 37,52.3"
     id="path22"
     style="fill:#280b0b;fill-opacity:1"
     inkscape:connector-curvature="0" />
  <path
     d="M 25.7,54.2 C 27.2,54.2 27,52.4 27,52.4 24.8,40.9 12,47 12,47 c -1,2 2.3,6.9 3.2,7.2 4.2,1 10.5,0 10.5,0"
     id="path24"
     inkscape:connector-curvature="0"
     style="fill:#f5f5f5" />
  <path
     d="m 15.5,49.5 c 0,2.5 2,4.5 4.5,4.5 2.5,0 4.5,-2 4.5,-4.5 0,-2.5 -2,-4.5 -4.5,-4.5 -2.5,0 -4.5,2 -4.5,4.5"
     id="path26"
     inkscape:connector-curvature="0"
     style="fill:#664e27" />
  <path
     d="M 27,52.3 C 24.8,38.6 13.5,47.7 9,45.8 c 4.5,4.3 13.5,-4.9 18,6.5"
     id="path28"
     style="fill:#280b0b;fill-opacity:1"
     inkscape:connector-curvature="0" />
  <path
     d="M 32,68 22,66.5 c 6,8.5 14,8.5 20,0 z"
     id="path30"
     inkscape:connector-curvature="0"
     style="fill:#f09985" />
  <path
     d="M 35.9,66.1 C 33,65 32,66.8 32,66.8 32,66.8 31,65 28.1,66.1 25.8,67 22,66.5 22,66.5 c 4,0.9 4.5,2.5 10,2.5 5.5,0 6,-1.7 10,-2.5 0,0 -3.8,0.5 -6.1,-0.4"
     id="path32"
     inkscape:connector-curvature="0"
     style="fill:#d47f6c" />
  <circle
     cx="20"
     cy="49.5"
     r="1.5"
     id="circle34"
     style="fill:#000000" />
</svg>
