<?xml version="1.0" encoding="UTF-8" standalone="no"?>
<svg
   xmlns:dc="http://purl.org/dc/elements/1.1/"
   xmlns:cc="http://creativecommons.org/ns#"
   xmlns:rdf="http://www.w3.org/1999/02/22-rdf-syntax-ns#"
   xmlns:svg="http://www.w3.org/2000/svg"
   xmlns="http://www.w3.org/2000/svg"
   xmlns:sodipodi="http://sodipodi.sourceforge.net/DTD/sodipodi-0.dtd"
   xmlns:inkscape="http://www.inkscape.org/namespaces/inkscape"
   viewBox="0 0 64 64"
   enable-background="new 0 0 64 64"
   version="1.1"
   id="svg102"
   sodipodi:docname="blad.svg"
   inkscape:version="0.92.0 r15299">
  <metadata
     id="metadata108">
    <rdf:RDF>
      <cc:Work
         rdf:about="">
        <dc:format>image/svg+xml</dc:format>
        <dc:type
           rdf:resource="http://purl.org/dc/dcmitype/StillImage" />
        <dc:title />
      </cc:Work>
    </rdf:RDF>
  </metadata>
  <defs
     id="defs106" />
  <sodipodi:namedview
     pagecolor="#ffffff"
     bordercolor="#666666"
     borderopacity="1"
     objecttolerance="10"
     gridtolerance="10"
     guidetolerance="10"
     inkscape:pageopacity="0"
     inkscape:pageshadow="2"
     inkscape:window-width="1366"
     inkscape:window-height="705"
     id="namedview104"
     showgrid="false"
     inkscape:zoom="3.6875"
     inkscape:cx="32"
     inkscape:cy="32"
     inkscape:window-x="-8"
     inkscape:window-y="-8"
     inkscape:window-maximized="1"
     inkscape:current-layer="svg102" />
  <path
     d="m 57.3,38.140323 c 6.2,0 6.2,-10.929838 0,-10.929838 v -3.64328 c 0,0 -35,-1.092983 -43,-15.787544 2,14.816003 -7.7,19.430824 -7.7,19.430824 -6.2,0 -6.2,10.929838 0,10.929838 C 6.6,46.641309 13.9,60 31.9,60 49.9,60 57.3,46.641309 57.3,38.140323"
     id="path84"
     style="fill:#a88054;stroke-width:1.10201025;fill-opacity:1"
     inkscape:connector-curvature="0" />
  <g
     id="g90"
     style="fill:#ffffff">
    <circle
       cx="44.5"
       cy="36.5"
       r="6.5"
       id="circle86" />
    <circle
       cx="19.5"
       cy="36.5"
       r="6.5"
       id="circle88" />
  </g>
  <circle
     cx="44.5"
     cy="36.5"
     r="4.5"
     id="circle92"
     style="fill:#ac9d93" />
  <circle
     cx="44.5"
     cy="36.5"
     r="1.5"
     id="circle94"
     style="fill:#231f20" />
  <circle
     cx="19.5"
     cy="36.5"
     r="4.5"
     id="circle96"
     style="fill:#ac9d93" />
  <circle
     cx="19.5"
     cy="36.5"
     r="1.5"
     id="circle98"
     style="fill:#231f20" />
  <path
     d="m 40.1,48.1 c -5.2,3.6 -11,3.6 -16.2,0 -0.6,-0.4 -1.2,0.3 -0.8,1 1.6,2.6 4.8,4.9 8.9,4.9 4.1,0 7.3,-2.3 8.9,-4.9 0.4,-0.7 -0.2,-1.4 -0.8,-1"
     id="path100"
     style="fill:#ac9d93"
     inkscape:connector-curvature="0" />
  <path
     inkscape:connector-curvature="0"
     d="M 6.6,27.210485 H 57.3 C 57.3,9.610306 53.399998,5.838839 31.950005,5.838839 10.500002,5.838839 6.6,9.610306 6.6,27.210485 Z"
     id="path10"
     style="fill:#a88054;stroke-width:0.78285593;fill-opacity:1" />
</svg>
