<?xml version="1.0" encoding="UTF-8" standalone="no"?>
<svg
   xmlns:dc="http://purl.org/dc/elements/1.1/"
   xmlns:cc="http://creativecommons.org/ns#"
   xmlns:rdf="http://www.w3.org/1999/02/22-rdf-syntax-ns#"
   xmlns:svg="http://www.w3.org/2000/svg"
   xmlns="http://www.w3.org/2000/svg"
   xmlns:sodipodi="http://sodipodi.sourceforge.net/DTD/sodipodi-0.dtd"
   xmlns:inkscape="http://www.inkscape.org/namespaces/inkscape"
   viewBox="0 0 64 64"
   enable-background="new 0 0 64 64"
   version="1.1"
   id="svg102"
   sodipodi:docname="Myheight.svg"
   inkscape:version="0.92.0 r15299">
  <metadata
     id="metadata108">
    <rdf:RDF>
      <cc:Work
         rdf:about="">
        <dc:format>image/svg+xml</dc:format>
        <dc:type
           rdf:resource="http://purl.org/dc/dcmitype/StillImage" />
      </cc:Work>
    </rdf:RDF>
  </metadata>
  <defs
     id="defs106" />
  <sodipodi:namedview
     pagecolor="#ffffff"
     bordercolor="#666666"
     borderopacity="1"
     objecttolerance="10"
     gridtolerance="10"
     guidetolerance="10"
     inkscape:pageopacity="0"
     inkscape:pageshadow="2"
     inkscape:window-width="1366"
     inkscape:window-height="705"
     id="namedview104"
     showgrid="false"
     inkscape:zoom="3.6875"
     inkscape:cx="32"
     inkscape:cy="32"
     inkscape:window-x="-8"
     inkscape:window-y="-8"
     inkscape:window-maximized="1"
     inkscape:current-layer="svg102" />
  <path
     d="m57.9 40c0 0 3.1-5.6 3.1-14 0-11-8.1-24-29-24s-29 13-29 24c0 8.4 3.1 14 3.1 14-3.6 4.1-5.8 12.4-2.7 17.8 1.3 2.2 14.1 10 15.3-3.9h26.4c1.3 13.8 14.1 6.1 15.3 3.9 3.2-5.4 1-13.7-2.5-17.8"
     fill="#ffb300"
     id="path80"
     style="fill:#280b0b;fill-opacity:1" />
  <path
     d="M32,6C16.7,6,5.5,14,5.5,24C5.5,24,9.6,9,32,9s25.5,15,25.5,15C57.5,14,47.3,6,32,6z"
     fill="#c28fef"
     id="path82" />
  <path
     d="m57.3 42c6.2 0 6.2-9 0-9v-3c0 0-35-.9-43-13 2 12.2-7.7 16-7.7 16-6.2 0-6.2 9 0 9 0 7 7.3 18 25.3 18s25.4-11 25.4-18"
     fill="#ffdd67"
     id="path84" />
  <g
     fill="#fff"
     id="g90">
    <circle
       cx="44.5"
       cy="36.5"
       r="6.5"
       id="circle86" />
    <circle
       cx="19.5"
       cy="36.5"
       r="6.5"
       id="circle88" />
  </g>
  <circle
     cx="44.5"
     cy="36.5"
     r="4.5"
     fill="#664e27"
     id="circle92" />
  <circle
     cx="44.5"
     cy="36.5"
     r="1.5"
     fill="#231f20"
     id="circle94" />
  <circle
     cx="19.5"
     cy="36.5"
     r="4.5"
     fill="#664e27"
     id="circle96" />
  <circle
     cx="19.5"
     cy="36.5"
     r="1.5"
     fill="#231f20"
     id="circle98" />
  <path
     d="m40.1 48.1c-5.2 3.6-11 3.6-16.2 0-.6-.4-1.2.3-.8 1 1.6 2.6 4.8 4.9 8.9 4.9s7.3-2.3 8.9-4.9c.4-.7-.2-1.4-.8-1"
     fill="#937237"
     id="path100" />
</svg>
