<?xml version="1.0" encoding="UTF-8" standalone="no"?>
<svg
   xmlns:dc="http://purl.org/dc/elements/1.1/"
   xmlns:cc="http://creativecommons.org/ns#"
   xmlns:rdf="http://www.w3.org/1999/02/22-rdf-syntax-ns#"
   xmlns:svg="http://www.w3.org/2000/svg"
   xmlns="http://www.w3.org/2000/svg"
   xmlns:sodipodi="http://sodipodi.sourceforge.net/DTD/sodipodi-0.dtd"
   xmlns:inkscape="http://www.inkscape.org/namespaces/inkscape"
   viewBox="0 0 64 64"
   enable-background="new 0 0 64 64"
   version="1.1"
   id="svg66"
   sodipodi:docname="Male Older lighter.svg"
   inkscape:version="0.92.0 r15299">
  <metadata
     id="metadata72">
    <rdf:RDF>
      <cc:Work
         rdf:about="">
        <dc:format>image/svg+xml</dc:format>
        <dc:type
           rdf:resource="http://purl.org/dc/dcmitype/StillImage" />
        <dc:title />
      </cc:Work>
    </rdf:RDF>
  </metadata>
  <defs
     id="defs70" />
  <sodipodi:namedview
     pagecolor="#ffffff"
     bordercolor="#666666"
     borderopacity="1"
     objecttolerance="10"
     gridtolerance="10"
     guidetolerance="10"
     inkscape:pageopacity="0"
     inkscape:pageshadow="2"
     inkscape:window-width="1366"
     inkscape:window-height="705"
     id="namedview68"
     showgrid="false"
     inkscape:zoom="3.6875"
     inkscape:cx="32"
     inkscape:cy="32"
     inkscape:window-x="-8"
     inkscape:window-y="-8"
     inkscape:window-maximized="1"
     inkscape:current-layer="svg66" />
  <path
     d="m32.1 8.9c0 0-.1 0 0 0-.1 0-.1 0-.2 0-25 0-29.9 8.8-29.9 22.6l.9 9.4h58.3l.9-9.4c-.1-13.8-5-22.6-30-22.6"
     fill="#748a93"
     id="path42"
     style="fill:#280b0b;fill-opacity:1" />
  <path
     d="m58.5 36.8c-9.1-3.6-2-13.5-1.7-15.5 0 0-2.1-19.3-24.8-19.3-22.7 0-24.8 19.3-24.8 19.3.3 2 7.5 11.9-1.7 15.5 0 0-3.4-.4-3.4 3.7 0 4.9 3.5 4.1 3.5 4.1 0 7.5 7.4 17.4 26.4 17.4 19 0 26.4-9.9 26.4-17.4 0 0 3.5.8 3.5-4.1 0-4.1-3.4-3.7-3.4-3.7"
     fill="#ffdd67"
     id="path44"
     style="fill:#fae3c3;fill-opacity:1" />
  <g
     fill="#748a93"
     id="g52"
     style="fill:#280b0b;fill-opacity:1">
    <path
       d="m40.7 52.9c.2 0 .3-.9.3-1.3 0-2.6-4-4.8-9-4.8s-9 2.3-9 4.9c0 .3.1 1.2.2 1.2 0 0 17.5 0 17.5 0"
       id="path46"
       style="fill:#280b0b;fill-opacity:1" />
    <path
       d="m17.6 9.8c2.3-.7 4.7-1.5 7.1-2 2.4-.5 4.9-.9 7.3-1 2.5-.1 5 .1 7.4.6 2.4.5 4.8 1.3 7 2.4-2.4-.4-4.8-.8-7.2-.9-2.4-.2-4.8-.2-7.1-.1-2.4.1-4.8.3-7.2.5-2.4.2-4.8.5-7.3.5"
       id="path48"
       style="fill:#280b0b;fill-opacity:1" />
    <path
       d="m14.5 14c2.9-.7 5.7-1.5 8.6-2 2.9-.5 5.9-.9 8.9-1 3-.1 6 .1 8.9.6 3 .5 5.9 1.2 8.6 2.4-2.9-.4-5.8-.7-8.8-.9-2.9-.2-5.8-.2-8.7-.1-2.9.1-5.8.3-8.7.5-2.9.2-5.8.6-8.8.5"
       id="path50"
       style="fill:#280b0b;fill-opacity:1" />
  </g>
  <g
     fill="#454749"
     id="g58"
     style="fill:#000000">
    <path
       d="m17.8 39.3l-.3-3c.8-.1 1.9-.3 3.1-.5 5.9-1.1 15.7-3 26.4.6l-1 2.8c-9.9-3.4-19.2-1.6-24.8-.5-1.4.3-2.6.5-3.4.6"
       id="path54"
       style="fill:#000000" />
    <ellipse
       cx="19.7"
       cy="37.9"
       rx="9"
       ry="9"
       id="ellipse56"
       style="fill:#000000" />
  </g>
  <ellipse
     cx="19.7"
     cy="37.9"
     rx="6"
     ry="6"
     fill="#b4d7ee"
     id="ellipse60" />
  <ellipse
     cx="44.3"
     cy="37.9"
     rx="9"
     ry="9"
     fill="#454749"
     id="ellipse62"
     style="fill:#000000" />
  <ellipse
     cx="44.3"
     cy="37.9"
     rx="6"
     ry="6"
     fill="#b4d7ee"
     id="ellipse64" />
</svg>
